<?xml version="1.0" encoding="UTF-8"?>
<svg width="149px" height="148px" viewBox="0 0 149 148" version="1.1" xmlns="http://www.w3.org/2000/svg" xmlns:xlink="http://www.w3.org/1999/xlink">
    <!-- Generator: Sketch 49.2 (51160) - http://www.bohemiancoding.com/sketch -->
    <title>CB_Logo_CMYK</title>
    <desc>Created with Sketch.</desc>
    <defs/>
    <g id="Symbols" stroke="none" stroke-width="1" fill="none" fill-rule="evenodd">
        <g id="CB_Logo_CMYK" transform="translate(-9.000000, -13.000000)">
            <g transform="translate(9.000000, 12.000000)">
                <g transform="translate(0.463503, 1.215571)">
                    <path d="M47.9815965,134.77401 C43.8710644,127.375295 23.6556369,112.136305 30.4720786,93.5109429 C36.4185205,93.8459429 36.6258106,100.096724 43.495467,99.4809619 C44.6661921,99.1982857 44.9353599,97.9839905 46.3907222,97.987819 C42.3340236,84.9279238 30.6737997,72.8653714 36.2607325,54.7153905 C43.3030275,53.9190476 43.0313847,60.6649905 47.8343277,62.1785524 C51.254924,54.8353524 42.4788173,44.562019 49.2835022,36.8129905 C53.7028038,35.7326952 54.554859,38.3367619 57.9643173,38.3048571 C60.3812583,33.3334571 59.9580151,25.439581 66.6463701,24.8716762 C66.7664127,24.9137905 66.884599,24.957181 67.0003102,25.0024857 L67.0201111,0.342657143 L8.58409832,0.342657143 L8.58409832,139.864733 L49.46666,139.864733 C48.9270869,138.206324 48.4462976,136.490486 47.9815965,134.77401 Z" id="Fill-4" fill="#CE2139"/>
                    <g id="Group-2" transform="translate(8.296703, 140.700000)" fill="#CE2139">
                        <path d="M0.995275308,2.42667619 C0.87213879,2.42667619 0.76323413,2.43688571 0.665467447,2.44071429 L0.665467447,3.72073333 C0.719919777,3.72392381 0.828824437,3.72966667 0.974855685,3.72966667 C1.49586548,3.72966667 1.79906595,3.4572 1.79906595,3.06030476 C1.79906595,2.60598095 1.52432919,2.42667619 0.995275308,2.42667619 M1.92344002,5.7894381 L0.688362177,4.10295238 L0.665467447,4.10295238 L0.665467447,5.7894381 L0.169827491,5.7894381 L0.169827491,2.0361619 C0.418575634,2.01829524 0.684030742,2.01255238 1.08252279,2.01255238 C1.79906595,2.01255238 2.31512553,2.27417143 2.31512553,2.99139048 C2.31512553,3.6307619 1.84299908,4.00532381 1.20627809,4.04807619 C1.31208886,4.18399048 1.42841884,4.32628571 1.52432919,4.44752381 L2.55397325,5.7894381 L1.92344002,5.7894381" id="Fill-5"/>
                        <path d="M5.7932681,1.7413619 L5.60020983,1.4606 L6.36625511,0.843561905 L6.60881549,1.18940952 L5.7932681,1.7413619 Z M5.03959835,5.7894381 L5.03959835,2.0361619 L6.91139719,2.0361619 L6.91139719,2.45730476 L5.53709463,2.45730476 L5.53709463,3.6441619 L6.84456933,3.6441619 L6.84456933,4.0595619 L5.53709463,4.0595619 L5.53709463,5.3606381 L6.91139719,5.3606381 L6.91139719,5.7894381 L5.03959835,5.7894381 Z" id="Fill-6"/>
                        <path d="M10.4693619,2.43688571 C10.3344686,2.43688571 10.2261828,2.43688571 10.1247034,2.44071429 L10.1247034,3.92109524 C10.2156636,3.93385714 10.319618,3.94342857 10.4210974,3.94342857 C10.9625268,3.93385714 11.3047102,3.63650476 11.3047102,3.16367619 C11.3047102,2.69595238 11.0411114,2.43688571 10.4693619,2.43688571 M10.4173847,4.36457143 C10.3245682,4.36457143 10.2224701,4.36457143 10.1247034,4.35372381 L10.1247034,5.7894381 L9.62906346,5.7894381 L9.62906346,2.0361619 C9.89885001,2.02212381 10.1958627,2.01255238 10.5225767,2.01255238 C11.3585437,2.01255238 11.8220073,2.44454286 11.8220073,3.11454286 C11.8220073,3.84707619 11.2428325,4.36457143 10.4173847,4.36457143" id="Fill-7"/>
                        <path d="M15.7060672,5.84431429 C14.5693748,5.84431429 14.3429026,5.19345714 14.3429026,4.52728571 L14.3429026,2.0361619 L14.8391614,2.0361619 L14.8391614,4.48772381 C14.8391614,5.00649524 15.0049935,5.42253333 15.7363873,5.42253333 C16.3749646,5.42253333 16.670121,5.15134286 16.670121,4.39328571 L16.670121,2.0361619 L17.1577168,2.0361619 L17.1577168,4.35372381 C17.1577168,5.33830476 16.6558891,5.84431429 15.7060672,5.84431429" id="Fill-8"/>
                        <path d="M20.8877014,4.04360952 C20.8214923,4.04360952 20.6327655,4.04360952 20.5486119,4.04807619 L20.5486119,5.3606381 C20.6389533,5.37850476 20.7967413,5.38807619 21.0114567,5.38807619 C21.6036258,5.38807619 21.8696997,5.09327619 21.8696997,4.68234286 C21.8696997,4.19675238 21.4489317,4.04360952 20.8877014,4.04360952 M21.0368266,2.42667619 C20.8703757,2.42667619 20.6952619,2.43688571 20.5486119,2.44071429 L20.5486119,3.65437143 C20.6500913,3.6582 20.7472392,3.6582 20.8784198,3.6582 C21.4767766,3.6582 21.7923526,3.41444762 21.7923526,3.00287619 C21.7923526,2.66787619 21.6289956,2.42667619 21.0368266,2.42667619 M20.9798991,5.80666667 C20.7639461,5.80666667 20.4069121,5.79326667 20.052972,5.7894381 L20.052972,2.0361619 C20.315952,2.02659048 20.6890742,2.01829524 21.1253116,2.01829524 C21.9229145,2.01829524 22.3059371,2.35712381 22.3059371,2.9205619 C22.3059371,3.31299048 22.0485261,3.66585714 21.6518904,3.7922 L21.6518904,3.8056 C22.1592871,3.89238095 22.3876156,4.27842857 22.3876156,4.66511429 C22.3876156,5.11497143 22.1172103,5.80666667 20.9798991,5.80666667" id="Fill-9"/>
                        <polyline id="Fill-10" points="25.0613487 5.7894381 25.0613487 2.0361619 25.5538948 2.0361619 25.5538948 5.3466 26.8595132 5.3466 26.8595132 5.7894381 25.0613487 5.7894381"/>
                        <polygon id="Fill-10-Copy" points="29.2985075 2.08442857 29.7910535 2.08442857 29.7910535 5.86985957 29.2985075 5.86985957"/>
                        <path d="M33.8114669,6.64001905 L33.8114669,6.18952381 C34.6864168,6.07658095 35.0304565,6.4849619 35.8787991,6.36180952 L35.8787991,6.81740952 C34.9450654,6.95715238 34.5725619,6.53537143 33.8114669,6.64001905 M33.9834867,2.42667619 C33.382036,2.42667619 32.8406066,2.9339619 32.8406066,3.88089524 C32.8406066,4.77678095 33.207541,5.38807619 33.9791553,5.38807619 C34.5725619,5.38807619 35.134411,4.89929524 35.134411,3.93002857 C35.134411,2.96714286 34.7130242,2.42667619 33.9834867,2.42667619 M33.9383161,5.84431429 C32.8406066,5.84431429 32.3127903,5.09327619 32.3127903,3.95491429 C32.3127903,2.69978095 33.088736,1.97809524 34.0373203,1.97809524 C35.0199373,1.97809524 35.6609898,2.63469524 35.6609898,3.87068571 C35.6609898,5.12262857 34.8838065,5.84431429 33.9383161,5.84431429" id="Fill-12"/>
                        <path d="M39.593933,5.84431429 C38.4560031,5.84431429 38.2289121,5.19345714 38.2289121,4.52728571 L38.2289121,2.0361619 L38.7245521,2.0361619 L38.7245521,4.48772381 C38.7245521,5.00649524 38.8928593,5.42253333 39.6242531,5.42253333 C40.2597365,5.42253333 40.5586056,5.15134286 40.5586056,4.39328571 L40.5586056,2.0361619 L41.0443451,2.0361619 L41.0443451,4.35372381 C41.0443451,5.33830476 40.540661,5.84431429 39.593933,5.84431429" id="Fill-13"/>
                        <polyline id="Fill-14" points="43.9383627 5.7894381 43.9383627 2.0361619 45.8083052 2.0361619 45.8083052 2.45730476 44.4352402 2.45730476 44.4352402 3.6441619 45.7470463 3.6441619 45.7470463 4.0595619 44.4352402 4.0595619 44.4352402 5.3606381 45.8083052 5.3606381 45.8083052 5.7894381 43.9383627 5.7894381"/>
                        <polyline id="Fill-15" points="51.5926277 5.7894381 51.5926277 2.0361619 53.4600951 2.0361619 53.4600951 2.45730476 52.0876488 2.45730476 52.0876488 3.6441619 53.3982174 3.6441619 53.3982174 4.0595619 52.0876488 4.0595619 52.0876488 5.3606381 53.4600951 5.3606381 53.4600951 5.7894381 51.5926277 5.7894381"/>
                        <polyline id="Fill-16" points="57.3614807 2.46177143 57.3614807 5.7894381 56.8639845 5.7894381 56.8639845 2.46177143 55.8176334 2.46177143 55.8176334 2.0361619 58.4121632 2.0361619 58.4121632 2.46177143 57.3614807 2.46177143"/>
                        <path d="M65.3585479,5.83282857 C64.1884416,5.83282857 63.7020833,5.06711429 63.7020833,4.00979048 C63.7020833,2.86568571 64.250938,2.00042857 65.4798281,2.00042857 C65.7613714,2.00042857 66.0460086,2.04637143 66.307751,2.11145714 L66.2532987,2.57981905 C65.9729929,2.49048571 65.7044439,2.44454286 65.4278509,2.44454286 C64.5968341,2.44454286 64.2404188,3.10369524 64.2404188,3.9255619 C64.2404188,4.84824762 64.630248,5.37850476 65.4761154,5.37850476 C65.740333,5.37850476 66.0757098,5.29810476 66.291044,5.18962857 L66.3467339,5.6414 C66.0682845,5.7613619 65.7242448,5.83282857 65.3585479,5.83282857" id="Fill-17"/>
                        <path d="M70.2320314,3.16367619 C70.1633472,2.97671429 70.1150827,2.79740952 70.0711495,2.60215238 L70.0593928,2.60215238 C70.0166972,2.78400952 69.96472,2.98054286 69.8935607,3.16814286 L69.4245281,4.50559048 L70.706633,4.50559048 L70.2320314,3.16367619 Z M71.1441079,5.7894381 L70.842145,4.91014286 L69.2939663,4.91014286 L68.9920034,5.7894381 L68.4833691,5.7894381 L69.8137385,2.0361619 L70.3625933,2.0361619 L71.6991504,5.7894381 L71.1441079,5.7894381 Z" id="Fill-18"/>
                        <path d="M76.3430679,5.7894381 L74.9582461,3.46102857 C74.7880826,3.19302857 74.6599959,2.9339619 74.5418096,2.68574286 C74.5622292,3.0826381 74.5789362,3.98681905 74.5789362,4.58088571 L74.5789362,5.7894381 L74.0938154,5.7894381 L74.0938154,2.0361619 L74.7472434,2.0361619 L76.0980324,4.28608571 C76.2601518,4.55919048 76.4111333,4.84378095 76.5454078,5.11114286 C76.5262257,4.6504381 76.5082812,3.72392381 76.5082812,3.10369524 L76.5082812,2.0361619 L76.9890705,2.0361619 L76.9890705,5.7894381 L76.3430679,5.7894381" id="Fill-19"/>
                        <polyline id="Fill-20" points="80.9640906 2.46177143 80.9640906 5.7894381 80.4659755 5.7894381 80.4659755 2.46177143 79.4196245 2.46177143 79.4196245 2.0361619 82.0153918 2.0361619 82.0153918 2.46177143 80.9640906 2.46177143"/>
                        <path d="M85.6593665,2.42667619 C85.0560594,2.42667619 84.51463,2.9339619 84.51463,3.88089524 C84.51463,4.77678095 84.8834208,5.38807619 85.6531787,5.38807619 C86.2453478,5.38807619 86.8084344,4.89929524 86.8084344,3.93002857 C86.8084344,2.96714286 86.3864288,2.42667619 85.6593665,2.42667619 M85.6104831,5.84431429 C84.51463,5.84431429 83.9861949,5.09327619 83.9861949,3.95491429 C83.9861949,2.69978095 84.7633782,1.97809524 85.7119625,1.97809524 C86.6921044,1.97809524 87.335632,2.63469524 87.335632,3.87068571 C87.335632,5.12262857 86.5584487,5.84431429 85.6104831,5.84431429" id="Fill-21"/>
                        <path d="M92.1571383,5.7894381 L90.7698414,3.46102857 C90.6033905,3.19302857 90.4728287,2.9339619 90.3564987,2.68574286 C90.3775371,3.0826381 90.391769,3.98681905 90.391769,4.58088571 L90.391769,5.7894381 L89.9085045,5.7894381 L89.9085045,2.0361619 L90.5619325,2.0361619 L91.9133403,4.28608571 C92.0754598,4.55919048 92.2264412,4.84378095 92.3607157,5.11114286 C92.3409149,4.6504381 92.3229703,3.72392381 92.3229703,3.10369524 L92.3229703,2.0361619 L92.8037597,2.0361619 L92.8037597,5.7894381 L92.1571383,5.7894381" id="Fill-22"/>
                        <path d="M99.7099239,2.43688571 C99.5224346,2.43688571 99.3009127,2.44454286 99.1672569,2.4515619 L99.1672569,5.34277143 C99.3009127,5.36446667 99.5007775,5.37850476 99.6455712,5.37850476 C100.497626,5.37850476 101.094746,4.92099048 101.094746,3.90386667 C101.094746,2.94927619 100.656033,2.43688571 99.7099239,2.43688571 M99.5923564,5.81113333 C99.2248031,5.81113333 98.9407847,5.7894381 98.6703794,5.7894381 L98.6703794,2.04062857 C98.9519227,2.0361619 99.3603152,2.01829524 99.7581885,2.01829524 C100.923345,2.01829524 101.620087,2.57981905 101.620087,3.87068571 C101.620087,5.15580952 100.78412,5.81113333 99.5923564,5.81113333" id="Fill-23"/>
                        <polyline id="Fill-24" points="104.213998 5.7894381 104.213998 2.0361619 106.087034 2.0361619 106.087034 2.45730476 104.710875 2.45730476 104.710875 3.6441619 106.019588 3.6441619 106.019588 4.0595619 104.710875 4.0595619 104.710875 5.3606381 106.087034 5.3606381 106.087034 5.7894381 104.213998 5.7894381"/>
                        <path d="M114.531477,2.6270381 C114.227658,2.49495238 113.894137,2.4254 113.560617,2.4254 C112.810041,2.4254 112.167132,2.92375238 112.167132,3.9255619 C112.167132,4.86228571 112.696805,5.39381905 113.514827,5.39381905 C113.758006,5.39381905 113.962202,5.35234286 114.160211,5.29427619 L114.160211,3.87642857 L114.647188,3.87642857 L114.647188,5.62353333 C114.288298,5.7613619 113.844635,5.83729524 113.444905,5.83729524 C112.344102,5.83729524 111.639316,5.15134286 111.639316,3.98681905 C111.639316,2.83314286 112.382466,1.98639048 113.608881,1.98639048 C113.95354,1.98639048 114.279635,2.04062857 114.603874,2.14782857 L114.531477,2.6270381" id="Fill-25"/>
                        <polyline id="Fill-26" points="117.43292 5.7894381 117.43292 2.0361619 119.301625 2.0361619 119.301625 2.45730476 117.926085 2.45730476 117.926085 3.6441619 119.238509 3.6441619 119.238509 4.0595619 117.926085 4.0595619 117.926085 5.3606381 119.301625 5.3606381 119.301625 5.7894381 117.43292 5.7894381"/>
                        <path d="M124.268543,5.7894381 L122.883722,3.46102857 C122.715414,3.19302857 122.587328,2.9339619 122.466666,2.68574286 C122.489561,3.0826381 122.50503,3.98681905 122.50503,4.58088571 L122.50503,5.7894381 L122.019291,5.7894381 L122.019291,2.0361619 L122.669625,2.0361619 L124.025364,4.28608571 C124.187484,4.55919048 124.337228,4.84378095 124.47274,5.11114286 C124.449845,4.6504381 124.435613,3.72392381 124.435613,3.10369524 L124.435613,2.0361619 L124.915165,2.0361619 L124.915165,5.7894381 L124.268543,5.7894381" id="Fill-27"/>
                        <path d="M128.807888,1.74519048 L127.995434,1.19706667 L128.242326,0.843561905 L129.009609,1.45613333 L128.807888,1.74519048 Z M127.718841,5.7894381 L127.718841,2.0361619 L129.592496,2.0361619 L129.592496,2.45730476 L128.214481,2.45730476 L128.214481,3.6441619 L129.524431,3.6441619 L129.524431,4.0595619 L128.214481,4.0595619 L128.214481,5.3606381 L129.592496,5.3606381 L129.592496,5.7894381 L127.718841,5.7894381 Z" id="Fill-28"/>
                        <path d="M133.69189,5.7894381 L133.139323,5.7894381 L131.825661,2.0361619 L132.380084,2.0361619 L133.192538,4.44752381 C133.262459,4.66511429 133.354657,4.94587619 133.432004,5.22408571 L133.435098,5.22408571 C133.503164,4.95991429 133.580511,4.71041905 133.688178,4.40732381 L134.525382,2.0361619 L135.03216,2.0361619 L133.69189,5.7894381" id="Fill-29"/>
                        <polyline id="Fill-30" points="137.447864 5.7894381 137.447864 2.0361619 139.317187 2.0361619 139.317187 2.45730476 137.944741 2.45730476 137.944741 3.6441619 139.254691 3.6441619 139.254691 4.0595619 137.944741 4.0595619 137.944741 5.3606381 139.317187 5.3606381 139.317187 5.7894381 137.447864 5.7894381"/>
                    </g>
                    <path d="M131.508336,125.195152 C131.746554,124.231685 131.115131,125.667787 131.599701,124.558743 C131.668105,124.695468 131.693457,124.898096 131.508336,125.195152" id="Fill-31" fill="#FFFFFE"/>
                    <path d="M52.8878751,14.8580476 C48.8553089,13.8951619 47.3541571,7.95768571 43.9230416,5.48506667 C43.5325936,5.17367619 44.3568039,5.18962857 43.4385396,4.5030381 C39.4059733,0.176114286 33.6464019,7.07264762 32.8358047,11.8858 L32.7819711,11.5482476 C32.4175118,12.4517905 32.5455985,13.7082 32.1520567,14.6474762 C32.0580027,14.6200381 32.1421563,14.304181 31.9367225,14.4732762 C32.1359685,14.572819 31.3371281,16.7046952 31.4825405,16.1584857 C31.1211751,15.979819 31.1731523,15.7507429 30.7480529,15.551019 L30.1633091,15.7877524 C28.4975628,16.2956762 26.5756431,13.8198667 24.2663693,14.8382667 C24.3628984,14.7553143 24.5819453,14.6774667 24.400025,14.6181238 C20.9948981,15.9115429 20.2269965,21.3640667 20.9305453,25.0299238 C20.7931769,24.8876286 20.5636109,24.7670286 20.4757446,25.0146095 C20.8439166,25.1703048 21.1297913,26.3686476 21.366164,27.403 C21.0926648,27.9492095 22.0523871,29.1328762 22.1235464,30.4065143 L22.0270172,30.317181 C22.5888663,31.1435143 22.0777569,31.7178 22.6420811,32.3865238 L22.4688236,33.0258952 C23.0090155,33.3634476 22.5003812,34.3895048 22.7033399,35.1539429 L22.8048193,35.1207619 C22.9353811,35.8666952 22.6959146,36.2559333 22.7899686,36.9469905 L22.7361351,37.0088857 C22.7324224,38.6379429 22.0171168,39.4655524 22.4558293,39.5523333 C22.0171168,40.0028286 22.7299473,37.9756 22.069094,38.7247238 C19.4887961,41.9477429 13.2249219,35.5514762 8.64350086,37.1837238 C8.0717514,37.0235619 7.70172306,36.9757048 7.55754815,36.829581 C6.98146725,36.8768 7.10336621,38.6449619 7.08294659,39.0424952 C7.10831643,38.8708476 6.82924824,39.3238952 6.75747016,39.5931714 C6.43632517,40.5024571 6.97899214,40.6843143 6.61515157,41.6688952 C6.59287562,41.2534952 6.49696527,41.0920571 6.32865807,41.2081905 C6.49201506,42.1264095 6.07248461,43.2654095 6.34969647,44.3214571 C6.27668084,44.1561905 6.22284729,43.905419 6.10280465,43.9360476 C6.50624692,45.0858952 6.14673778,46.0321905 6.41838066,47.0225143 L6.17891416,46.6683714 C5.99885021,48.3280571 6.66217859,47.093981 6.58235642,48.4984286 C6.49325261,48.180019 6.41590555,48.3089143 6.32185153,48.2661619 C6.82306047,49.4913048 7.47339455,51.4732286 7.90468175,52.6728476 L7.80320241,52.6524286 C8.12620373,54.0205048 8.89843677,55.2992476 9.67190736,56.621381 C9.8340268,57.1720571 9.1106771,56.7190095 9.85320887,58.0175333 C10.148984,57.7795238 11.3104275,60.0849619 11.2733009,59.0767714 C11.884652,60.1813143 12.8097229,61.9801048 13.3882789,62.6054381 C12.936572,62.2219429 13.2756616,63.442619 12.6748296,62.570981 L12.8858324,63.4011429 C12.6680231,63.4088 12.4861028,62.6769048 12.4353631,63.0221143 C12.7404199,63.4566571 13.73665,64.6409619 13.9352773,65.0786952 C14.6870907,65.7550762 15.6585698,66.1723905 16.5131001,67.5328095 C15.9920903,66.9776667 16.3200418,68.172819 15.9970405,67.7765619 L17.8496573,69.2518381 C18.1398634,69.7023333 17.6058593,69.5326 18.0953115,70.1407048 C18.1800839,70.0475429 18.4121251,70.3021429 18.6163213,70.4578381 C18.7394578,70.6122571 19.6843295,72.4550762 19.3687535,72.8653714 C19.3044007,73.157619 18.9473667,72.0958286 19.0346142,72.7141429 C19.4194932,73.6240667 19.5748061,73.6049238 19.9633977,74.5231429 L19.9157519,74.5652571 C20.1026224,75.1899524 20.8340162,76.293219 20.7888455,75.5523905 C20.6248697,75.1184857 20.607544,75.8012476 20.466463,75.1255048 C20.2164773,75.7821048 21.933582,74.5652571 20.1125228,77.1674095 L19.3099697,77.5783429 C19.4702328,77.4736952 19.3817478,77.3728762 19.4114491,77.2324952 C18.7889599,78.2253714 16.62943,79.2227143 15.1109526,78.892181 C15.0639256,79.1027524 15.757574,78.5259143 15.9704331,78.6439619 C14.027475,78.457 11.5573193,77.8999429 10.5777961,76.4336 C10.8067434,76.5765333 10.5053993,76.7654095 10.5270564,76.7073429 C9.81917616,76.0635048 10.0252287,75.8516571 9.53392021,75.5466476 C9.60569828,75.3743619 8.95845809,75.0980667 8.48942552,74.7464762 C8.18374994,74.6916 8.4294042,74.5537714 8.82356481,74.9034476 C8.67443968,74.0930667 4.35785499,73.5845048 5.31386465,72.3816952 C5.43205095,72.393181 5.41534399,73.6189619 5.28973237,74.014581 L5.07192305,73.7772095 C4.80832427,74.1077429 4.70436982,75.1574095 4.45314657,75.1720857 C4.52925608,76.1432667 5.146795,71.6861714 5.05335975,72.9547048 C4.74892173,73.2042 5.00818907,74.7394571 4.7179829,74.3846762 C4.43891471,75.2122857 4.66043669,76.0896667 4.32258474,76.8624 C4.39498158,76.6365143 4.02928469,76.105619 3.96616949,76.8119905 C3.8659277,78.0505333 4.05465452,77.1801714 4.0237157,78.1813429 L4.09796887,78.8060381 C4.36404276,78.8551714 4.09796887,79.897181 4.38198728,79.4454095 C4.16912817,79.6011048 4.57380798,81.1931524 4.12643259,81.103819 L3.77496755,80.9570571 C3.8028125,81.4988 4.16665306,81.8050857 4.41106977,82.1904952 L4.2866957,82.3921333 C4.82874389,82.3921333 4.45933434,83.6517333 4.96920615,84.185819 C5.00571396,85.3139714 5.73958286,86.8836857 5.55394992,87.5102952 C6.02174494,88.2626095 6.51738489,88.8930476 6.78717143,89.8476381 C6.66465369,89.6906667 6.55018004,89.4481905 6.42209331,89.4469143 C6.5303792,90.0799048 6.68507332,90.1768952 7.02601915,90.6395143 C6.89298221,90.5623048 7.3298384,91.8857143 7.49319539,92.6022952 C8.03895624,93.2939905 8.14662335,92.8760381 8.33844406,92.862 C8.27594763,93.8376476 9.90642364,94.7520381 10.0270851,95.8642381 C9.80123164,95.655581 9.13728449,94.9351714 9.41202124,95.629419 C9.3946955,96.6216571 10.6477179,96.7263048 11.1687277,97.9329429 L11.33951,97.4084286 C11.4366579,98.0529048 12.6494598,98.7726762 12.2249791,98.9468762 C12.6123332,99.1893524 13.0399077,100.2454 13.2849432,99.8561619 C14.2916925,101.765981 16.7080147,103.705152 16.9846077,105.222543 C17.2383061,105.410143 17.6844439,106.046324 17.7469404,105.774495 C17.5910087,105.223819 17.1522962,105.346333 17.1522962,105.09301 C17.3397854,105.29401 17.4678722,105.258276 17.5297498,105.2436 C17.8898777,105.818524 18.2091664,106.239029 17.5322249,105.997829 C18.2970326,107.31039 19.0742159,106.665914 20.1706878,108.265619 C19.981961,108.317943 20.0215627,108.474914 20.3996351,108.889038 L21.2980985,109.557124 C22.0127854,110.622743 21.4125722,110.384733 21.1966192,110.594029 C21.6545138,111.077705 22.063525,111.8498 22.4335534,111.988267 C22.3673443,112.184162 22.6959146,112.750152 22.5913414,113.006667 C22.6853954,112.376229 22.9168178,113.47439 23.0733683,113.746857 L22.9168178,113.473114 C22.8270952,113.624981 23.1166826,114.3288 23.2627139,114.685495 C23.4155516,114.541924 23.2676641,113.783229 23.2002174,113.363362 C23.4198831,113.647314 23.5380694,114.152048 23.810331,114.531076 C23.4885673,114.4762 23.9118104,115.61201 24.0293779,116.118657 C24.1376638,116.708257 24.4705655,116.682095 24.5114048,116.85119 C24.3703237,116.912448 24.762628,117.787914 24.4284887,117.413352 C24.322678,117.230219 24.4365328,116.920743 24.2137733,116.641895 C24.217486,117.052829 23.9520308,117.0892 24.3659923,117.814076 C24.6772369,118.354543 24.8702951,117.475886 25.0225142,118.647429 C24.8702951,118.380705 24.7409709,118.366667 24.5757575,118.17141 L24.7397333,119.267657 L25.0058072,119.226819 C24.9829125,119.388257 24.9321728,119.298924 24.9185597,119.374857 C25.2836378,119.588619 25.6054016,120.863533 25.9884242,120.974562 C26.2130401,121.462705 26.2384099,122.093143 26.398673,122.587667 L26.3423644,122.503438 C26.4333245,123.152381 26.8404794,123.889381 27.1981322,124.299038 L27.1337795,124.299038 C27.2538221,124.620638 27.5619728,125.378057 27.9029186,125.672857 C28.1757991,126.470476 27.1678122,126.400924 27.9728404,127.032 C28.4536297,127.767724 29.1157205,127.908105 29.0773564,127.522057 C29.8384515,128.833343 30.8260187,130.30479 31.6378534,131.387 C31.8760824,131.446981 31.8228676,131.311067 32.2027964,131.545248 L34.7187415,133.6382 L35.3183359,134.159524 L35.4618921,134.290971 C34.4421484,134.63299 37.8503693,133.627352 33.1891261,135.066257 L33.2646168,134.972457 L33.5702924,134.601086 L34.8313588,133.350419 C34.4495737,134.025524 35.016373,133.548867 35.1463161,133.63501 C35.3424682,132.996276 35.7935562,133.213867 35.6190613,132.769114 C35.401252,132.653619 35.3548437,132.524086 34.8072265,133.058171 C35.6042106,131.552267 37.3559668,129.867695 38.3509594,129.84281 C37.9215285,129.965324 38.1647077,129.734333 38.4196436,129.496962 C38.5365924,129.884924 39.5291098,129.378276 40.2116203,128.833343 L40.2140954,128.55641 L40.8013143,128.505362 C41.0581065,128.303086 40.9225945,127.807286 41.776506,127.709019 L42.0933195,127.892152 C42.8414203,127.495895 43.9292293,126.866733 44.8802888,126.836743 L45.6915047,126.9918 C46.0609143,126.86099 46.6691716,126.486429 45.9742856,126.559171 C47.5478342,126.305848 48.5279761,126.314781 49.0483671,126.584057 C51.5847319,125.593095 55.4749796,125.267667 58.4834708,125.554171 L58.3875605,125.734114 C59.1981576,125.927457 58.8219415,125.431657 59.3875032,125.57459 C59.1183355,125.737305 59.9920479,125.967657 59.3454264,126.158448 C60.4994446,126.381781 60.8570974,125.885981 61.6188112,125.831105 C61.749373,125.596924 61.0012723,125.961914 61.1640105,125.665838 C61.3069479,125.563743 62.7629289,125.927457 62.9590811,125.606495 C63.2406243,125.776229 62.9949701,126.018067 62.8322319,126.148876 L63.5438248,126.042952 C64.3717477,126.545771 61.5396078,126.602562 62.4065137,127.205562 L63.0525163,127.210667 C63.6384976,127.647124 61.3273675,127.47101 62.928761,127.754962 C63.6360225,127.647124 64.2764562,127.183229 63.6638675,126.965638 C65.1328428,127.005838 64.407018,126.176952 65.9830417,126.359448 C66.3963844,126.608943 64.7139311,126.288619 64.9954744,126.608943 C65.7132551,126.970105 66.4953886,126.592352 67.1488166,126.756343 C66.4273232,126.551514 67.0832263,126.248419 67.5652531,126.230552 C68.3504805,126.474943 67.0102106,126.516419 68.1450467,126.662543 C68.3504805,126.474943 69.414776,126.421343 68.5231191,126.190352 C68.9834888,125.766019 69.6987944,126.42581 70.3540787,126.140581 C70.6851241,126.511314 69.1066253,126.756343 70.3274713,127.077305 C70.167827,126.733371 71.9047325,126.850143 71.3045194,126.295 C71.7791209,126.451971 71.8020157,126.70721 71.424562,126.853971 C72.0953157,127.1392 73.176937,126.504295 73.3285372,127.161533 L73.6076054,126.872476 L74.4454288,127.351686 C75.0549236,127.437829 76.4706842,127.17621 76.3512603,127.65861 C76.5517439,127.636914 77.9439909,127.84621 77.4533012,127.435276 C76.6130027,127.1124 76.421182,127.546943 75.9960826,127.027533 C76.5622631,127.482495 77.2559115,127.145581 77.7763025,127.089429 L77.8338487,127.291067 C78.1438557,127.252143 78.821416,127.398267 79.0330375,127.218962 C78.7929523,127.295533 78.8944316,127.442295 79.1209038,127.525886 L79.4736064,127.284048 C80.6969275,127.326162 79.6864655,127.834724 80.8720412,127.9298 L79.9494455,128.015305 C80.1505479,127.994248 80.5119133,128.324781 81.0873754,128.324781 C81.3410738,128.09379 81.7952557,127.843019 82.013065,127.669457 C82.688769,127.655419 82.2667634,128.010838 82.9542241,127.841743 L82.0594733,128.026152 C81.9171547,128.09379 82.572439,128.548114 83.4548142,128.675095 C84.0302764,128.670629 84.9602974,128.426876 84.0933916,128.146114 C84.5339604,128.210562 85.1323173,128.467076 84.7542448,128.60299 C85.7690382,128.668076 84.6608096,128.303086 85.5506102,128.271181 C85.8816556,128.501533 86.9496638,128.917571 87.5709153,129.272352 L86.6080991,129.572895 L87.2033621,129.670524 C86.3779143,129.903429 87.5603961,129.997229 87.0659937,130.300324 C87.469436,130.417095 87.9817829,130.369876 88.3926505,130.335419 C87.2807092,129.557581 89.8504879,129.727952 89.5794638,129.1358 C91.2377847,129.240448 90.4172871,130.60661 92.2457716,130.02339 C91.9858855,129.838981 92.8478411,129.5512 91.793446,129.5512 C92.8063831,129.764324 92.5625852,129.114105 93.7333103,129.518657 C92.8113333,129.608629 94.6119728,130.214819 93.2816034,130.343714 C93.3911269,130.173981 92.5842423,130.094219 92.377571,130.114638 C92.7704941,130.386467 92.2166891,130.647448 93.2587087,130.805695 C93.9040926,130.852276 94.7765674,130.97479 94.6893199,130.674886 C94.7060269,130.361581 93.7116531,130.557476 94.1615036,130.307981 C95.444846,130.399229 95.5921148,130.878438 96.1892341,130.404971 C95.386681,130.343714 95.2282742,129.997229 95.2728261,129.786657 L96.2183166,129.78219 L96.0104077,129.960857 C97.4775267,130.30479 96.4986223,129.645638 97.9304711,129.893857 L98.5541978,130.390933 C98.1674625,130.694029 96.4794403,129.955752 96.6607418,130.557476 C97.5969506,130.707429 97.9440842,130.459848 98.8091337,130.72721 L98.1334298,130.750181 C98.4688066,130.815905 98.7101294,131.616076 100.104852,131.350629 C100.816445,131.26959 100.312761,131.170048 100.351125,130.960752 C101.867127,131.08901 102.344204,130.956924 103.313826,131.017543 C103.06941,131.414438 105.017318,131.208333 103.905996,131.540781 C103.440676,131.284905 101.261345,131.0118 100.681551,131.338505 C101.171003,131.905771 99.5040197,131.111343 99.120997,131.570133 C100.330705,131.741781 100.211281,132.2178 100.372163,132.565562 C100.705684,132.63001 101.049723,132.541952 101.25392,132.517067 C101.432127,132.233752 100.992177,132.179514 101.003934,131.868762 C102.344204,132.149524 103.666529,132.113152 104.437524,131.87259 C104.876237,132.059552 104.706073,132.349248 104.164644,132.332657 C105.78522,132.383705 107.497374,132.5796 109.021421,132.804848 C108.065411,132.225457 110.734194,132.839305 110.080147,132.372857 C109.271406,132.187171 108.592609,131.774962 109.055453,131.596295 C109.560375,131.672867 109.027608,131.808143 109.233042,131.930019 C109.893895,131.723914 110.216897,132.466019 110.868468,132.031476 C109.413106,132.175686 110.55908,132.63001 110.273824,133.014781 C111.34307,132.804848 110.213184,133.285333 111.264485,133.30001 C112.330637,133.094543 113.627593,132.93821 114.795843,132.867381 C116.294519,133.361267 118.490557,132.665743 119.75843,132.485162 C120.458266,132.594276 120.066581,133.083057 120.820869,133.065829 C121.690869,132.949695 120.096901,132.682333 121.414895,132.719981 L121.309084,132.81761 C121.706338,132.813143 123.666622,132.503667 123.810797,131.750076 L123.589275,132.340952 L124.169688,131.995105 C124.228471,132.136124 124.54281,132.166752 124.206814,132.402848 C125.084239,132.416248 125.785313,131.7488 126.587866,131.432943 L125.933819,131.387 C127.173847,130.642981 127.801287,129.871524 128.842687,128.939267 L129.01842,129.140267 L129.499209,128.44921 C129.644003,128.808457 130.043114,128.112933 129.996087,127.56481 C130.069721,128.463248 129.806122,129.202162 129.297488,129.846638 C128.701606,130.196952 129.574081,129.1358 129.070397,129.254486 C128.644679,129.334248 127.750547,130.276714 127.739409,130.647448 C128.142232,130.307981 128.126144,130.246724 128.35076,129.893857 C128.736877,130.045086 128.14347,130.591933 127.990632,131.076248 C128.190497,130.866952 128.568569,130.669143 128.535774,130.535781 C128.238762,131.064124 127.824181,131.503771 127.112588,132.153352 C127.540163,131.634581 126.715953,132.139314 126.84899,131.890457 C126.946756,132.2044 126.156579,132.625543 125.0434,132.947143 C124.14803,132.791448 123.123955,134.121876 121.78121,134.136552 C122.252718,133.793895 122.831893,133.31341 123.515641,132.878229 C122.708137,132.949695 122.7069,133.317238 121.868458,133.210038 C121.5337,133.508667 121.329503,133.92279 120.296147,134.21121 L120.203949,133.967457 C119.275166,134.218229 119.314767,134.585771 118.083402,134.672552 C115.975231,134.883124 113.849733,134.604914 112.260715,134.636819 L112.205026,134.387324 C111.307181,134.946295 109.262125,134.543019 108.077786,134.622781 C106.09337,134.206105 103.695612,134.476019 102.714232,133.955333 C99.1865873,133.668829 96.0729041,133.499095 92.4679124,132.845048 L93.1293844,132.577686 C92.4437801,132.741676 92.7364614,132.302029 92.0935526,132.26119 C92.7834884,132.658086 91.1579626,132.4992 90.6784108,132.653619 C89.1085749,132.122086 86.9911218,132.113152 85.5283342,132.149524 L85.5079146,131.890457 C84.0024314,132.133571 82.3428729,131.461019 80.5552277,131.111343 C80.3658821,130.97479 80.0732008,130.691476 79.535484,130.639152 C78.5070775,130.88801 78.0002996,130.776343 76.5393683,130.838238 C75.49673,130.697857 73.819227,130.369876 72.7790637,130.066781 C68.794762,130.059124 64.8259297,129.370619 60.7395298,129.412733 L60.4635555,129.114105 C56.4885355,129.450381 51.7183876,129.089219 48.4660985,129.786657 L48.7185593,129.265971 C47.6344629,129.1358 46.4649753,129.915552 46.7756011,130.147819 C45.7564763,130.249914 44.4087811,131.003505 43.6668681,130.761029 C42.6019538,130.877162 42.5623521,131.374238 41.892836,131.83941 C40.275973,132.798467 39.1491811,132.72381 38.2550491,134.327981 L38.5440177,133.998724 C38.5848569,133.76199 38.4604829,133.5846 38.1647077,133.925981 C37.8571758,134.572371 36.5131933,135.815381 37.405469,135.641819 C35.8876103,136.306076 39.282218,135.549295 33.7577816,137.535048 L32.095748,136.220571 C30.9701936,135.34319 29.8421641,134.417952 29.1113891,133.466552 C29.1454218,133.713495 28.6689639,133.335105 28.3960835,133.237476 C27.182044,131.462295 26.2817243,129.378276 25.1338939,128.088048 C25.025608,127.767724 25.6598539,128.407733 25.2149536,127.669457 C24.8907148,127.266181 25.025608,127.763257 24.610409,127.269371 C23.1395773,124.259476 22.1631481,120.849495 21.3983403,118.015714 C20.2536039,112.3054 16.9122109,110.37899 13.501515,105.834476 L13.625889,105.796829 C12.2101285,104.8148 11.4564587,102.467886 10.1199015,101.813838 C9.9627323,101.422686 9.22391319,100.561895 9.58465988,100.656333 C8.524077,99.7527905 7.58601186,97.4046 6.23336649,95.9114571 L6.55327393,96.3026095 C5.68884319,94.4776571 4.54039405,93.0617238 3.84983951,90.9904667 C3.98040134,91.1710476 4.16912817,91.522 4.29969001,91.5296571 C4.18459758,90.6739714 3.07760647,89.9082571 3.42226496,89.2676095 C3.23539447,88.8298762 3.0268668,89.0570381 3.15495353,89.3256762 C1.61543766,84.8813429 0.413773743,79.5991905 1.4353737,74.470819 C2.74161084,71.0385048 2.40747155,74.5142095 2.77749988,71.6491619 C2.94333197,71.4647524 2.62218698,71.4124286 2.74161084,71.4162571 C6.62381445,68.6718095 5.19877222,71.6108762 6.63062099,70.8560095 C6.41961821,70.3991333 7.20051412,70.8572857 7.29456814,70.6977619 C9.43615352,71.9343905 9.43367842,72.6669238 10.855008,73.5002762 L10.644624,73.559619 C12.3815295,74.4491238 13.6636344,75.8842 14.9927663,75.4158381 C15.9463008,75.4598667 17.042154,75.8650571 17.1281639,75.288219 C16.967282,75.3667048 18.4820468,74.4478476 19.5395358,74.1830381 L19.9615414,74.0669048 L20.1669752,74.0171333 L20.2177148,74.0043714 C22.0288736,71.4596476 17.7692163,77.4692286 18.2054537,76.8470857 L18.2029786,76.8381524 L18.1955533,76.8273048 L18.1732773,76.774981 L17.6281353,75.5523905 C16.7915495,73.3541524 15.6078301,71.2567333 14.2632288,69.2097238 C11.655086,65.0250952 8.35205714,61.137181 6.08981035,56.0330571 C4.02062182,51.0776095 2.79235051,45.158 4.14870855,39.7967238 C5.48588451,37.795019 2.23421413,38.5377619 7.37439031,34.2874095 L11.5319494,34.304 C14.362233,34.6370857 17.0477229,35.6688857 19.2975942,36.8219238 C20.2177148,37.446619 20.7251115,37.7765143 21.2906732,38.0330286 L22.2318322,38.4012095 C17.5551197,40.2644476 21.0202679,38.2844381 20.0444574,38.2844381 C20.0976722,38.3833429 20.0834403,38.5116 20.1886323,38.4012095 C19.8161289,38.2027619 20.5920746,37.057381 20.0834403,36.7376952 C20.3550832,33.6659048 19.0284264,30.3139905 18.4350198,26.1944476 C18.5835262,26.8440286 18.9535545,27.1082 18.8013355,26.3456762 L18.4189316,25.5767714 L18.5074166,25.4306476 C18.3477723,24.9252762 18.1052119,24.3324857 18.0383841,24.916981 C17.6962007,22.1942286 17.8280001,19.0471429 19.2134406,16.2682381 C20.7733761,14.8905905 19.0983482,13.8504952 23.447728,12.3197048 C25.0212766,12.146781 26.5719304,12.1218952 28.0638005,12.7746667 C29.4690419,13.1983619 30.318622,13.9174952 31.0351652,13.8926095 L31.5803072,14.0304381 L31.7201507,14.0712762 C30.8167371,14.6640667 33.8332724,12.7823238 29.7171713,15.4004286 L29.7542979,15.3110952 L29.9040418,14.9601429 L30.5092052,13.5180476 C31.2554496,11.4410476 31.7603712,8.98693333 32.8772627,6.44029524 C34.116672,4.08955238 36.652418,0.303733333 41.6279996,1.05030476 C49.735209,5.60758095 49.4505718,14.7961524 56.5658825,14.7572286 C56.6197161,14.6334381 55.6203921,15.8553905 52.8878751,14.8580476" id="Fill-32" fill="#FFFFFE"/>
                    <path d="M130.941798,126.892292 C130.728932,127.052132 130.441922,127.656574 130.426136,127.06246 C130.577295,127.059018 130.835126,126.776715 130.941798,126.892292" id="Fill-33" fill="#FFFFFE"/>
                    <path d="M111.070904,132.433241 C111.045073,132.479963 110.833642,132.366845 110.782458,132.342255 C110.989106,132.332418 111.1881,132.203563 111.348347,132.286188 C111.138351,132.294549 111.167531,132.368813 111.070904,132.433241" id="Fill-34" fill="#FFFFFE"/>
                    <path d="M105.584736,131.90528 C105.68374,131.77249 106.887261,131.744456 107.590809,131.775932 L105.584736,131.90528" id="Fill-35" fill="#FFFFFE"/>
                    <path d="M100.40794,130.586254 C100.076443,130.423463 100.178332,130.368872 100.643289,130.437234 C100.669598,130.513465 100.512699,130.530679 100.40794,130.586254" id="Fill-36" fill="#FFFFFE"/>
                    <path d="M99.8591887,130.922655 C99.5238649,130.881342 99.369836,130.778553 99.21628,130.678714 C99.2138937,130.798717 99.9993455,130.706256 99.8591887,130.922655" id="Fill-37" fill="#FFFFFE"/>
                    <path d="M88.8171312,128.799787 C88.5423944,128.778639 87.9310433,128.825362 87.7089025,128.641914 C87.9749764,128.78159 89.0658793,128.622733 88.8171312,128.799787" id="Fill-38" fill="#FFFFFE"/>
                    <path d="M83.3800058,128.250012 L83.0418118,128.201814 C82.8093334,128.101976 83.0800799,128.039515 83.2843356,128.060663 L83.3800058,128.250012" id="Fill-39" fill="#FFFFFE"/>
                    <polyline id="Fill-40" fill="#FFFFFE" points="10.6953637 96.714181 11.0053349 97.0358285 10.8599163 97.0648456 10.6953637 96.714181"/>
                    <path d="M18.9207593,78.1773333 C19.3876296,77.7701098 19.3555801,78.0411003 19.4579472,77.9997878 C18.9910769,78.3322552 19.5320915,77.7524045 18.9207593,78.1773333" id="Fill-41" fill="#FFFFFE"/>
                    <polyline id="Fill-42" fill="#FFFFFE" points="10.1152609 57.5396 10.1788815 57.6605867 9.9181804 57.7604253 10.1152609 57.5396"/>
                    <path d="M130.786206,125.195152 C131.028251,124.231685 130.393001,125.667787 130.881397,124.558743 C130.949802,124.695468 130.971327,124.898096 130.786206,125.195152" id="Fill-43" fill="#009C49"/>
                    <path d="M51.9788925,14.8580476 C47.9463262,13.8951619 46.4426994,7.95768571 43.0159153,5.48506667 C42.6260861,5.17622857 43.4459649,5.18962857 42.529557,4.50559048 C38.4982282,0.176114286 32.738038,7.07264762 31.9249657,11.8858 L31.8723697,11.5482476 C31.5066728,12.4517905 31.6366159,13.7082 31.2424553,14.6474762 C31.1514951,14.6200381 31.2344112,14.304181 31.0302149,14.472 C31.2263671,14.572819 30.4300018,16.7015048 30.5735579,16.1584857 C30.2097173,15.979819 30.2635509,15.7507429 29.8384515,15.551019 L29.2537077,15.7877524 C27.5885802,16.2956762 25.6691356,13.8198667 23.3573867,14.8382667 C23.4563909,14.7553143 23.6729627,14.6774667 23.4916612,14.6181238 C20.0859154,15.9115429 19.3204889,21.3640667 20.0215627,25.0299238 C19.8841943,24.8876286 19.6540095,24.7670286 19.5649056,25.0146095 C19.934934,25.1703048 20.2214275,26.3686476 20.4590376,27.403 C20.1830633,27.9492095 21.1458795,29.1328762 21.2145637,30.4039619 L21.116797,30.317181 C21.6786461,31.1435143 21.1675367,31.7178 21.7318609,32.3865238 L21.5623161,33.0258952 C22.0994141,33.3634476 21.590161,34.3895048 21.7962136,35.1539429 L21.8964554,35.1207619 C22.0288736,35.8660571 21.7875507,36.2559333 21.8828423,36.9469905 L21.8271524,37.0088857 C21.822821,38.6379429 21.1112281,39.4655524 21.5468467,39.5523333 C21.1112281,40.0028286 21.8197271,37.9756 21.1588738,38.7247238 C18.5804323,41.9477429 12.3159392,35.5514762 7.73513699,37.1837238 C7.16029365,37.0235619 6.79150287,36.9757048 6.64794673,36.829581 C6.07248461,36.8768 6.1937648,38.6449619 6.17643905,39.0424952 C6.19747745,38.8708476 5.92026559,39.3238952 5.8515814,39.5931714 C5.52981764,40.4999048 6.07062828,40.6843143 5.70988159,41.6688952 C5.68451176,41.2534952 5.58736385,41.0920571 5.41905665,41.2081905 C5.58055731,42.1264095 5.16288319,43.2654095 5.43947627,44.3214571 C5.36584187,44.1561905 5.31386465,43.905419 5.19629712,43.9360476 C5.59788305,45.0858952 5.24023025,46.0321905 5.51001679,47.0225143 L5.26807519,46.6683714 C5.08863001,48.3280571 5.75628983,47.093981 5.67399256,48.4984286 C5.58303241,48.180019 5.50568536,48.3089143 5.41286888,48.2661619 C5.91284028,49.4913048 6.56317435,51.4732286 6.99755544,52.6728476 L6.89298221,52.6524286 C7.21969619,54.0205048 7.99131045,55.2992476 8.76292472,56.621381 C8.92751926,57.1720571 8.20355079,56.7190095 8.944845,58.0175333 C9.24123893,57.7795238 10.4045387,60.0849619 10.3655558,59.0754952 C10.9756694,60.1813143 11.8988839,61.9801048 12.4805338,62.6054381 C12.0294457,62.2219429 12.3666789,63.442619 11.7639906,62.570981 L11.9774685,63.4011429 C11.760278,63.4088 11.5758826,62.6769048 11.5251429,63.0221143 C11.8339124,63.4566571 12.8270486,64.6409619 13.0287697,65.077419 C13.7805832,65.7550762 14.7532998,66.1723905 15.6059738,67.5328095 C15.0812513,66.9776667 15.4085841,68.172819 15.0886766,67.7752857 L16.9437685,69.2518381 C17.2327371,69.7023333 16.6944016,69.5326 17.188804,70.1407048 C17.27172,70.0475429 17.5056175,70.3021429 17.7085762,70.4578381 C17.8329503,70.610981 18.777822,72.4550762 18.4603896,72.8653714 C18.3972744,73.157619 18.0408592,72.0958286 18.1256316,72.7141429 C18.5098918,73.6240667 18.667061,73.6017333 19.0550338,74.5231429 L19.0080068,74.5652571 C19.1936398,75.1874 19.923796,76.2919429 19.8804816,75.5498381 C19.7183622,75.1159333 19.6985614,75.8012476 19.5562428,75.1255048 C19.3099697,75.7821048 21.0258369,74.5652571 19.204159,77.1674095 L18.398512,77.5783429 C18.5631065,77.4736952 18.4746215,77.3716 18.4999913,77.2324952 C17.88369,78.222819 15.7210662,79.2239905 14.2025887,78.892181 C14.157418,79.1027524 14.8492101,78.5259143 15.0664007,78.6439619 C13.122205,78.457 10.6520493,77.8999429 9.67190736,76.4355143 C9.90023588,76.5797238 9.59827296,76.7686 9.62116769,76.7073429 C8.91143107,76.0635048 9.11562731,75.8535714 8.62370001,75.5498381 C8.69980952,75.3756381 8.05133177,75.0980667 7.58106165,74.7464762 C7.27662363,74.6928762 7.52289666,74.5537714 7.91705728,74.9066381 C7.76607582,74.0930667 3.45072868,73.5845048 4.40550078,72.380419 C4.52306831,72.393181 4.50883645,73.6189619 4.38198728,74.014581 L4.16541551,73.7772095 C3.90181673,74.1077429 3.79724351,75.1548571 3.54787659,75.1720857 C3.62274854,76.1432667 4.23966869,71.6861714 4.14747099,72.9540667 C3.84179541,73.2042 4.10106276,74.7394571 3.81147537,74.3821238 C3.53240718,75.2122857 3.75207283,76.0896667 3.41422087,76.8624 C3.48538016,76.6365143 3.1240147,76.105619 3.05780562,76.8119905 C2.95942016,78.0505333 3.14629066,77.1801714 3.11658939,78.1787905 L3.18898623,78.8060381 C3.45753522,78.8551714 3.19146134,79.897181 3.47176708,79.4454095 C3.25952675,79.6011048 3.66420657,81.1931524 3.21930628,81.1025429 L2.86598491,80.9570571 C2.89630496,81.4988 3.25952675,81.8050857 3.50270591,82.188581 L3.37771306,82.3921333 C3.91914247,82.3921333 3.55220802,83.6517333 4.06084229,84.185819 C4.09796887,85.311419 4.83245655,86.8836857 4.64620483,87.5102952 C5.11214352,88.259419 5.6096398,88.8930476 5.88004512,89.8444476 C5.75814616,89.6874762 5.6411974,89.4481905 5.51558578,89.4469143 C5.62077778,90.0799048 5.77856578,90.1768952 6.11765529,90.6395143 C5.98709345,90.5623048 6.41961821,91.8857143 6.58606908,92.6022952 C7.13121115,93.2939905 7.23949704,92.8760381 7.43193652,92.862 C7.3694401,93.8376476 8.99558467,94.7520381 9.11810242,95.8642381 C8.89286778,95.6536667 8.23015817,94.931981 8.50180105,95.629419 C8.48695041,96.6216571 9.73687889,96.7263048 10.2628389,97.9329429 L10.4299085,97.4084286 C10.5270564,98.0529048 11.7429522,98.7726762 11.3166152,98.9468762 C11.7027318,99.1893524 12.1296875,100.2454 12.3741042,99.8561619 C13.3833287,101.765981 15.8015071,103.705152 16.0781002,105.222543 C16.3274671,105.410143 16.7748425,106.046324 16.8361014,105.774495 C16.6838824,105.223819 16.2439323,105.346333 16.2439323,105.09301 C16.4289465,105.29401 16.5588895,105.258276 16.6207672,105.2436 C16.9808951,105.818524 17.3001837,106.239029 16.6257174,105.997829 C17.38805,107.31039 18.1652333,106.665914 19.2629427,108.265619 C19.0717408,108.317943 19.1144364,108.474914 19.4925088,108.889038 L20.3891159,109.557124 C21.1056591,110.622743 20.5060647,110.384733 20.2876366,110.594029 C20.7480063,111.077705 21.1551612,111.8498 21.5264271,111.988267 C21.4577429,112.184162 21.7875507,112.750152 21.6786461,113.006667 C21.7764128,112.376229 22.0059788,113.47439 22.1631481,113.746857 L22.0059788,113.47439 C21.9181126,113.624981 22.2089375,114.331352 22.35435,114.685495 C22.5028563,114.541924 22.3593002,113.783229 22.2887597,113.365914 C22.5096629,113.647314 22.628468,114.152048 22.9032047,114.531076 C22.5802034,114.4762 23.0046841,115.61201 23.1216328,116.118657 C23.2280624,116.708257 23.5603453,116.682095 23.6018034,116.85119 C23.4601036,116.912448 23.8505515,117.787914 23.5182685,117.413352 C23.4155516,117.230219 23.5238375,116.920743 23.3029343,116.641895 C23.306647,117.052829 23.0424294,117.0892 23.4563909,117.814076 C23.7676355,118.354543 23.9613125,117.475886 24.1160066,118.647429 C23.9613125,118.380705 23.8344633,118.366667 23.6661561,118.17141 L23.8332258,119.269571 L24.095587,119.226819 C24.073311,119.388257 24.0256652,119.298924 24.0095771,119.374857 C24.3746552,119.588619 24.6958002,120.863533 25.0794416,120.974562 C25.3040574,121.462705 25.3281897,122.093143 25.4927843,122.587667 L25.4358568,122.503438 C25.5237231,123.152381 25.9296405,123.889381 26.2891496,124.299038 L26.2278907,124.299038 C26.3436019,124.620638 26.6517526,125.378057 26.993936,125.672857 C27.2668164,126.470476 26.2594483,126.400924 27.0663328,127.032 C27.5427907,127.767724 28.2085942,127.908105 28.1708489,127.522057 C28.9307064,128.833343 29.9182736,130.30479 30.728252,131.387 C30.9701936,131.446981 30.9169789,131.311067 31.2931949,131.545248 L33.8085213,133.6382 L34.4087345,134.159524 L34.5547657,134.290971 C33.532547,134.63299 36.9413866,133.627352 32.2801434,135.066257 L32.3574905,134.972457 L32.660691,134.601086 L33.9236137,133.350419 C33.5405911,134.025524 34.1086279,133.548867 34.2354771,133.63501 C34.432248,132.996276 34.8858112,133.213867 34.7113162,132.769114 C34.490413,132.653619 34.4446235,132.524086 33.8970064,133.058171 C34.6958468,131.552267 36.4482218,129.867695 37.4407392,129.845362 C37.0113084,129.965324 37.2575814,129.73561 37.5125173,129.496962 C37.6257534,129.884924 38.6213647,129.378276 39.3014001,128.833343 L39.3032564,128.55641 L39.8923316,128.505362 C40.1509802,128.303086 40.0123743,127.807286 40.865667,127.709019 L41.1849557,127.892152 C41.9299626,127.495895 43.0202467,126.866733 43.9737812,126.836743 L44.7812845,126.9918 C45.1500753,126.86099 45.7589514,126.486429 45.0653029,126.559171 C46.6407079,126.305848 47.6196122,126.314781 48.1393845,126.584057 C50.6751305,125.593095 54.5666157,125.267667 57.5763445,125.554171 L57.4804341,125.734114 C58.2879374,125.927457 57.9123401,125.431657 58.4791394,125.57459 C58.2099716,125.737305 59.0843028,125.967657 58.4383001,126.158448 C59.5886056,126.381781 59.9474959,125.885981 60.7110661,125.831105 C60.8397716,125.596924 60.0916709,125.961914 60.257503,125.665838 C60.3979652,125.563743 61.8533275,125.927457 62.0525735,125.606495 C62.3316417,125.776229 62.0890813,126.018067 61.9213929,126.148876 L62.6360797,126.0404 C63.4615275,126.545771 60.631244,126.602562 61.4969122,127.205562 L62.1429149,127.210667 C62.729515,127.647124 60.4159097,127.47101 62.0185408,127.754962 C62.729515,127.647124 63.366236,127.183229 62.7536473,126.965638 C64.2238602,127.005838 63.4974166,126.176952 65.0734403,126.359448 C65.4874017,126.608943 63.8074236,126.282876 64.0864918,126.608943 C64.8030349,126.970105 65.5901186,126.592352 66.2410715,126.756343 C65.5201969,126.551514 66.1736248,126.248419 66.6556517,126.230552 C67.4439729,126.474943 66.0999904,126.516419 67.2354453,126.662543 C67.4414978,126.474943 68.5082685,126.421343 67.6159928,126.190352 C68.0751249,125.766019 68.7916681,126.42581 69.4438585,126.140581 C69.7749039,126.511314 68.1957864,126.756343 69.4197262,127.077305 C69.2588443,126.733371 70.9957499,126.850143 70.3961555,126.295 C70.8689007,126.451971 70.8942706,126.70721 70.5168169,126.853971 C71.1857143,127.1392 72.2673356,126.504295 72.4207921,127.161533 L72.6998603,126.872476 L73.5364461,127.351686 C74.1453222,127.437829 75.560464,127.17621 75.4422777,127.65861 C75.6439988,127.636914 77.0381022,127.84621 76.5443186,127.435276 C75.7027826,127.1124 75.5128182,127.546943 75.0901938,127.027533 C75.654518,127.482495 76.3481664,127.145581 76.8667011,127.089429 L76.9242473,127.291067 C77.2342543,127.252143 77.9142897,127.398267 78.1252925,127.218962 C77.8821133,127.295533 77.9835926,127.442295 78.2119212,127.525886 L78.5646237,127.284048 C79.7904199,127.326162 78.7793392,127.834724 79.9624398,127.9298 L79.0398441,128.015305 C79.2440403,127.994248 79.6029307,128.324781 80.177774,128.324781 C80.4314724,128.09379 80.8850355,127.843019 81.1028448,127.669457 C81.7804051,127.655419 81.3577808,128.010838 82.0470978,127.841743 L81.1486343,128.026152 C81.0075533,128.09379 81.6622188,128.548114 82.5458316,128.675095 C83.1212937,128.670629 84.0531711,128.426876 83.1825526,128.146114 C83.6286904,128.210562 84.2258097,128.467076 83.8440246,128.60299 C84.8625307,128.668076 83.7530645,128.303086 84.6441026,128.271181 C84.9739105,128.501533 86.0412999,128.917571 86.6644078,129.272352 L85.7003541,129.572895 L86.2974734,129.670524 C85.4720255,129.903429 86.6514135,129.997229 86.1594862,130.300324 C86.5592158,130.417095 87.0728003,130.369876 87.4842866,130.335419 C86.3748204,129.557581 88.9415052,129.727952 88.6686248,129.1358 C90.3288021,129.240448 89.5070669,130.60661 91.3380265,130.02339 C91.0769028,129.838981 91.9376209,129.5512 90.8850821,129.5512 C91.8949253,129.764324 91.6548401,129.114105 92.8230901,129.518657 C91.9023507,129.608629 93.7005151,130.214819 92.3701457,130.343714 C92.482763,130.173981 91.6740221,130.094219 91.4710635,130.114638 C91.8602739,130.386467 91.3064689,130.647448 92.3497261,130.805695 C92.9926348,130.852276 93.8675848,130.97479 93.7790997,130.674886 C93.797663,130.361581 92.803908,130.557476 93.254996,130.307981 C94.5358633,130.399229 94.6856073,130.878438 95.281489,130.404971 C94.4764608,130.343714 94.3217667,129.997229 94.3656998,129.786657 L95.3093339,129.777724 L95.1026626,129.960857 C96.5697816,130.30479 95.5896397,129.645638 97.0208697,129.893857 L97.6476902,130.390933 C97.2572423,130.694029 95.5692201,129.955752 95.7542342,130.557476 C96.6873491,130.707429 97.0375766,130.459848 97.8995323,130.72721 L97.2287786,130.750181 C97.5622991,130.815905 97.7999092,131.616076 99.1933939,131.350629 C99.9068431,131.26959 99.4025403,131.170048 99.4452359,130.960752 C100.959382,131.08901 101.433983,130.956924 102.403606,131.017543 C102.162902,131.414438 104.110192,131.208333 102.997013,131.540781 C102.532931,131.284905 100.351125,131.0118 99.7725687,131.338505 C100.263258,131.905771 98.5944182,131.111343 98.2120144,131.570133 C99.4198661,131.741781 99.3060112,132.2178 99.4619429,132.565562 C99.7967009,132.63001 100.140122,132.541952 100.345556,132.517067 C100.523145,132.233752 100.081957,132.179514 100.093095,131.868762 C101.436459,132.149524 102.758784,132.113152 103.529779,131.87259 C103.964779,132.059552 103.795853,132.349248 103.258137,132.332657 C104.876237,132.383705 106.590867,132.5796 108.116151,132.804848 C107.154572,132.225457 109.823974,132.839305 109.17364,132.372857 C108.360567,132.187171 107.686101,131.774962 108.150183,131.596295 C108.65263,131.672867 108.117388,131.808143 108.322822,131.930019 C108.988625,131.723914 109.310389,132.466019 109.961961,132.031476 C108.501648,132.175686 109.646385,132.63001 109.363604,133.014781 C110.431612,132.804848 109.304201,133.285333 110.35674,133.30001 C111.42413,133.094543 112.721085,132.93821 113.88686,132.867381 C115.388012,133.361267 117.580337,132.665743 118.849447,132.485162 C119.550521,132.594276 119.156361,133.083057 119.911887,133.065829 C120.780649,132.949695 119.187918,132.682333 120.507768,132.719981 L120.397626,132.81761 C120.797356,132.813143 122.75764,132.503667 122.901815,131.750076 L122.682768,132.340952 L123.260705,131.995105 C123.322583,132.136124 123.635065,132.166752 123.297213,132.402848 C124.1734,132.416248 124.87633,131.7488 125.681358,131.432943 L125.027312,131.387 C126.266102,130.642981 126.891066,129.871524 127.934324,128.939267 L128.1082,129.140267 L128.590227,128.44921 C128.735639,128.808457 129.135369,128.112933 129.089579,127.56481 C129.159501,128.463248 128.895902,129.202162 128.387268,129.846638 C127.795099,130.196952 128.666336,129.1358 128.162652,129.254486 C127.735696,129.334248 126.840327,130.276714 126.832901,130.647448 C127.235725,130.311171 127.215924,130.246724 127.439921,129.893857 C127.830369,130.045086 127.235725,130.591933 127.082268,131.076248 C127.28399,130.866952 127.659587,130.669143 127.62741,130.535781 C127.331017,131.064124 126.918911,131.503771 126.203606,132.153352 C126.629943,131.634581 125.80697,132.139314 125.942482,131.890457 C126.040249,132.2044 125.247596,132.625543 124.13318,132.947143 C123.239048,132.791448 122.217448,134.121876 120.873465,134.136552 C121.342498,133.793895 121.925385,133.31341 122.606658,132.878229 C121.801011,132.949695 121.797298,133.317238 120.957,133.210038 C120.62348,133.508667 120.422996,133.92279 119.388402,134.21121 L119.29311,133.967457 C118.366183,134.218229 118.40331,134.585771 117.173182,134.672552 C115.068104,134.881848 112.943226,134.604914 111.350495,134.636819 L111.29728,134.387324 C110.396961,134.946295 108.353142,134.543019 107.167566,134.622781 C105.18315,134.206105 102.786629,134.476019 101.802774,133.955333 C98.2788422,133.668829 95.1645402,133.499095 91.5614048,132.845048 L92.2191642,132.577686 C91.5347974,132.741676 91.8274787,132.302029 91.1833324,132.26119 C91.8732682,132.658086 90.2489799,132.4992 89.7719033,132.653619 C88.1995922,132.122086 86.0821391,132.113152 84.6212079,132.149524 L84.6020258,131.890457 C83.0922112,132.133571 81.4314152,131.461019 79.6487201,131.111343 C79.4556619,130.97479 79.1666933,130.691476 78.6258826,130.639152 C77.5974761,130.88801 77.0931733,130.776343 75.6291482,130.838238 C74.5902225,130.697857 72.9102443,130.369876 71.8694623,130.066781 C67.8863981,130.059124 63.9150907,129.370619 59.8324035,129.412733 L59.5564292,129.114105 C55.5807904,129.450381 50.8069299,129.089219 47.5571158,129.786657 L47.8089578,129.265971 C46.7254802,129.1358 45.5559927,129.915552 45.8666185,130.147819 C44.8512063,130.249914 43.5022736,131.003505 42.7554104,130.762305 C41.6911148,130.877162 41.6508944,131.374238 40.9832345,131.83941 C39.3688467,132.798467 38.2395797,132.72381 37.3485415,134.327981 L37.6325599,133.998724 C37.6752555,133.76199 37.5527378,133.5846 37.2544875,133.925981 C36.9463368,134.572371 35.6042106,135.818571 36.49463,135.641819 C34.980484,136.306076 38.3719978,135.549295 32.8506553,137.535048 L31.1861466,136.220571 C30.0605922,135.34319 28.9356566,134.417952 28.2011689,133.466552 C28.2389143,133.713495 27.7575062,133.335105 27.4858633,133.237476 C26.2749177,131.462295 25.3733604,129.378276 24.2255301,128.088048 C24.1160066,127.767724 24.7521088,128.407733 24.305971,127.669457 C23.9811133,127.266181 24.1160066,127.763257 23.7014264,127.269371 C22.2305947,124.259476 21.2541654,120.849495 20.4875014,118.015714 C19.3440024,112.3054 16.0032283,110.37899 12.5919135,105.834476 L12.7187627,105.796829 C11.2999083,104.812248 10.55057,102.467886 9.21339399,101.813838 C9.05313089,101.422686 8.31431177,100.559343 8.67443968,100.656333 C7.61447558,99.7502381 6.67702922,97.4046 5.3256214,95.9114571 L5.64243496,96.3026095 C4.78171688,94.4776571 3.63388652,93.0617238 2.94209442,90.9904667 C3.07451259,91.1710476 3.26262063,91.522 3.39318247,91.5296571 C3.27623372,90.6739714 2.17171771,89.9082571 2.51328232,89.2663333 C2.32517427,88.8298762 2.12097804,89.0570381 2.24906477,89.3231238 C0.704598686,84.8813429 -0.494590122,79.596 0.528247391,74.470819 C1.83448453,71.0385048 1.49972646,74.511019 1.86913601,71.6491619 C2.03620566,71.4647524 1.71320434,71.4124286 1.83448453,71.4162571 C5.71854446,68.6730857 4.29040836,71.6108762 5.72225712,70.8560095 C5.51311067,70.3991333 6.29400658,70.8598381 6.3855855,70.6977619 C8.52964599,71.9343905 8.52717088,72.6694762 9.94788167,73.5002762 L9.73687889,73.559619 C11.4731657,74.4516762 12.7558893,75.8842 14.0850212,75.4177524 C15.0410308,75.4598667 16.1337901,75.8625048 16.2198,75.2856667 C16.0576806,75.3654286 17.5761581,74.4427429 18.6311719,74.1830381 L19.0550338,74.0669048 L19.2604676,74.0171333 L19.3136824,74.0043714 C21.1229848,71.4596476 16.8614712,77.4692286 17.2970899,76.8470857 L17.2927584,76.8381524 L17.2890458,76.8247524 L17.266151,76.774981 L17.0823744,76.3672381 L16.7222465,75.5523905 C15.8825668,73.3516 14.7007038,71.2567333 13.3561025,69.2097238 C10.7436282,65.0250952 7.44369327,61.137181 5.18020893,56.0330571 C3.11287673,51.0776095 1.88274909,45.158 3.2397259,39.7967238 C4.57752064,37.795019 1.32832537,38.5377619 6.46355134,34.2874095 L10.622348,34.304 C13.4563443,34.6370857 16.1393591,35.6688857 18.3879928,36.8219238 C19.3099697,37.446619 19.818604,37.7765143 20.380453,38.0330286 L21.3222308,38.4012095 C16.6436619,40.2644476 20.1100477,38.2844381 19.1360935,38.2844381 C19.1868332,38.3833429 19.1756952,38.5116 19.2771746,38.4012095 C18.9059087,38.2027619 19.6830919,37.057381 19.1744577,36.7376952 C19.4485757,33.6659048 18.1206813,30.3139905 17.5254184,26.1944476 C17.673306,26.8440286 18.0420967,27.1082 17.8898777,26.3456762 L17.5124241,25.5767714 L17.598434,25.4306476 C17.4387897,24.9252762 17.1987044,24.3324857 17.1300202,24.916981 C16.7853617,22.1942286 16.9196362,19.0471429 18.304458,16.2682381 C19.8668686,14.8905905 18.1906031,13.8504952 22.542458,12.3197048 C24.1135315,12.146781 25.662329,12.1218952 27.1548179,12.7746667 C28.5619156,13.1983619 29.4114957,13.9174952 30.1255637,13.8926095 L30.6707058,14.0304381 L30.8093117,14.0712762 C29.9096107,14.6640667 32.9242897,12.7855143 28.8075698,15.4004286 L28.8453152,15.3110952 L28.9975342,14.9601429 L29.6026976,13.5180476 C30.3452294,11.4410476 30.8495322,8.98693333 31.9676613,6.44029524 C33.2070706,4.08955238 35.7428166,0.303733333 40.7177794,1.05030476 C48.8256076,5.60758095 48.542208,14.7961524 55.6568999,14.7572286 C55.7101146,14.6334381 54.7138845,15.8553905 51.9788925,14.8580476" id="Fill-44" fill="#009C49"/>
                    <path d="M130.223175,126.892292 C130.009352,127.052132 129.722342,127.656574 129.704643,127.06246 C129.855802,127.059018 130.115546,126.776715 130.223175,126.892292" id="Fill-45" fill="#009C49"/>
                    <path d="M110.349411,132.433241 C110.325493,132.479963 110.111192,132.366845 110.060965,132.342255 C110.268091,132.332418 110.46565,132.203563 110.628767,132.286188 C110.417815,132.294549 110.447472,132.368813 110.349411,132.433241" id="Fill-46" fill="#009C49"/>
                    <path d="M104.862005,131.90528 C104.963484,131.77249 106.168242,131.744456 106.871791,131.775932 L104.862005,131.90528" id="Fill-47" fill="#009C49"/>
                    <path d="M99.6855984,130.586254 C99.3550581,130.423463 99.4583818,130.368872 99.9247737,130.437234 C99.9501263,130.513465 99.7903572,130.530679 99.6855984,130.586254" id="Fill-48" fill="#009C49"/>
                    <path d="M99.1386521,130.922655 C98.8052416,130.881342 98.6473859,130.778553 98.4947866,130.678714 C98.4924003,130.798717 99.2768954,130.706256 99.1386521,130.922655" id="Fill-49" fill="#009C49"/>
                    <path d="M88.0956378,128.799787 C87.8233761,128.778639 87.2132625,128.825362 86.9898842,128.641914 C87.2522455,128.78159 88.3456235,128.622733 88.0956378,128.799787" id="Fill-50" fill="#009C49"/>
                    <path d="M82.6600091,128.250012 L82.3222935,128.201814 C82.0869449,128.101976 82.3576914,128.039515 82.5652956,128.060663 L82.6600091,128.250012" id="Fill-51" fill="#009C49"/>
                    <polyline id="Fill-52" fill="#009C49" points="9.9732515 96.714181 10.2846578 97.0358285 10.1406742 97.0623865 9.9732515 96.714181"/>
                    <path d="M18.2029786,78.1757184 C18.6688922,77.7699704 18.6373211,78.0409609 18.7392098,77.9971893 C18.2747312,78.3296567 18.8138325,77.7507896 18.2029786,78.1757184" id="Fill-53" fill="#009C49"/>
                    <polyline id="Fill-54" fill="#009C49" points="9.39534299 57.5396 9.45944199 57.6605867 9.1973058 57.7604253 9.39534299 57.5396"/>
                    <path d="M64.7900406,79.9865143 C64.7609581,77.6357714 63.9819186,75.4407238 61.3422181,75.4407238 C57.9519418,75.4407238 57.6196588,80.0190571 57.6196588,82.5867524 C57.6196588,85.4926381 57.9519418,89.237619 61.5810658,89.237619 C63.8315559,89.237619 64.880382,87.2882381 65.1538812,85.2463333 L69.829975,85.5570857 C69.3213408,90.416819 66.0801896,93.2908 61.3422181,93.2908 C55.2212812,93.2908 52.2511542,88.1566857 52.2511542,82.3691619 C52.2511542,76.4903905 55.3122414,71.4468857 61.491962,71.4468857 C66.6507015,71.4468857 69.2916395,74.5416476 69.829975,79.6451333 L64.7900406,79.9865143" id="Fill-55" fill="#000000"/>
                    <polyline id="Fill-56" fill="#000000" points="89.6933187 92.9832381 84.8928508 92.9832381 84.8928508 84.2272952 78.5324474 84.2272952 78.5324474 92.9832381 73.7325983 92.9832381 73.7325983 71.757 78.5324474 71.757 78.5324474 80.0503238 84.8928508 80.0503238 84.8928508 71.757 89.6933187 71.757 89.6933187 92.9832381"/>
                    <path d="M103.764296,69.6525619 L101.154915,67.9533143 L98.606175,69.6525619 L95.5450878,69.6525619 L101.154915,65.0110571 L106.944188,69.6525619 L103.764296,69.6525619 Z M99.2057694,75.8720762 L99.2057694,80.1715619 L107.006684,80.1715619 L107.006684,84.1628476 L99.2057694,84.1628476 L99.2057694,88.8656095 L109.107431,88.8656095 L109.107431,92.9832381 L94.4028264,92.9832381 L94.4028264,71.757 L109.107431,71.757 L109.107431,75.8720762 L99.2057694,75.8720762 Z" id="Fill-57" fill="#000000"/>
                    <polyline id="Fill-58" fill="#000000" points="128.458427 92.9832381 124.348514 92.9832381 116.456639 78.7198952 116.33474 78.7198952 116.33474 92.9832381 112.617131 92.9832381 112.617131 71.757 117.80619 71.757 124.678322 84.2272952 124.737724 84.2272952 124.737724 71.757 128.458427 71.757 128.458427 92.9832381"/>
                    <polyline id="Fill-59" fill="#000000" points="138.030281 75.8720762 138.030281 80.1715619 145.829339 80.1715619 145.829339 84.1628476 138.030281 84.1628476 138.030281 88.8656095 147.928229 88.8656095 147.928229 92.9832381 133.2261 92.9832381 133.2261 71.757 147.928229 71.757 147.928229 75.8720762 138.030281 75.8720762"/>
                    <path d="M58.0713657,115.003267 L61.4022394,115.003267 C62.2710016,115.003267 63.3823242,115.064524 64.1298061,114.540648 C64.8234546,114.075476 65.2101899,113.207667 65.2101899,112.34241 C65.2101899,111.53841 64.7331132,110.702505 64.0419399,110.29859 C63.3520041,109.898505 62.391663,109.898505 61.6101483,109.898505 L58.0713657,109.898505 L58.0713657,115.003267 Z M58.0713657,106.123533 L61.3422181,106.123533 C62.1818978,106.123533 63.1725589,106.189257 63.8915772,105.62901 C64.4627079,105.195105 64.7609581,104.422371 64.7609581,103.712171 C64.7609581,102.934971 64.401449,102.196695 63.739977,101.792143 C63.0494224,101.391419 61.7889747,101.482667 60.9808527,101.482667 L58.0713657,101.482667 L58.0713657,106.123533 Z M62.4807668,97.7070571 C64.1001049,97.7070571 65.7819393,97.7070571 67.1915121,98.6374 C68.8424078,99.7208857 69.7111699,101.264438 69.7111699,103.275076 C69.7111699,105.690905 68.1512345,107.299543 65.9923233,107.857238 L65.9923233,107.915305 C68.5398261,108.445562 70.2829194,110.45301 70.2829194,113.207667 C70.2829194,115.064524 69.2012981,116.704429 67.7626428,117.787914 C66.2621099,118.932657 64.2523239,118.932657 62.4807668,118.932657 L53.270279,118.932657 L53.270279,97.7070571 L62.4807668,97.7070571 Z" id="Fill-60" fill="#000000"/>
                    <path d="M77.7831091,103.864676 C77.301701,105.134486 77.1228746,106.960714 77.1228746,108.28859 C77.1228746,110.950086 77.5108474,115.188952 80.9042176,115.188952 C82.5520194,115.188952 83.4548142,114.353048 83.9962436,112.772486 C84.4720828,111.47779 84.623683,109.715371 84.623683,108.319857 C84.623683,106.773114 84.4720828,104.946886 83.8731071,103.524571 C83.2735127,102.102895 82.4010379,101.452038 80.9042176,101.452038 C79.2527032,101.452038 78.3523834,102.316657 77.7831091,103.864676 M74.2412325,115.902981 C72.7413183,113.704743 72.0823214,110.950086 72.0823214,108.28859 C72.0823214,102.656762 74.812982,97.4001333 80.9042176,97.4001333 C83.6336406,97.4001333 85.7944081,98.3253714 87.4428286,100.646124 C88.9148978,102.721848 89.6654737,105.722171 89.6654737,108.28859 C89.6654737,110.702505 89.0343217,113.644124 87.7126152,115.654762 C86.1242159,118.069314 83.6942807,119.241495 80.9042176,119.241495 C78.1129169,119.241495 75.8611893,118.251171 74.2412325,115.902981" id="Fill-61" fill="#000000"/>
                    <path d="M108.865489,110.548086 C108.865489,112.865648 108.897047,115.282752 107.186748,117.013905 C105.534615,118.716343 103.105918,119.241495 100.85419,119.241495 C98.69466,119.241495 96.2034659,118.902029 94.5538079,117.417181 C92.513083,115.590314 92.424598,113.147048 92.424598,110.548086 L92.424598,97.7070571 L97.6452151,97.7070571 L97.6452151,110.548086 C97.6452151,111.53841 97.6142763,112.959448 98.0950656,113.824067 C98.7249801,114.943924 100.015748,115.251486 101.183998,115.251486 C102.14372,115.251486 103.556387,114.943924 104.157219,114.105467 C104.814359,113.147048 104.724018,111.664114 104.724018,110.548086 L104.724018,97.7070571 L108.865529,97.7070571 L108.865489,110.548086" id="Fill-62" fill="#000000"/>
                    <path d="M117.388516,106.898819 L120.02636,106.898819 C121.018878,106.898819 122.098024,106.989429 122.966786,106.46619 C123.74892,105.969114 124.16845,104.97879 124.16845,104.051 C124.16845,103.214457 123.689517,102.316657 122.995869,101.884029 C122.188365,101.358238 120.807256,101.482667 119.906936,101.482667 L117.388516,101.482667 L117.388516,106.898819 Z M117.388516,118.932657 L112.586811,118.932657 L112.586811,97.7070571 L121.258344,97.7070571 C123.088066,97.7070571 124.948727,97.7370476 126.537126,98.791181 C128.21958,99.9346476 129.148982,102.009733 129.148982,104.08099 C129.148982,106.492352 127.798812,108.723133 125.576166,109.557124 L129.386592,118.932657 L124.04717,118.932657 L120.898216,110.548086 L117.388516,110.548086 L117.388516,118.932657 Z" id="Fill-63" fill="#000000"/>
                    <path d="M139.857527,111.53841 L139.857527,107.577752 L148.319915,107.577752 L148.319915,118.932657 L146.130065,118.932657 L145.438891,116.4862 C143.909895,118.406867 142.229916,119.241495 139.828445,119.241495 C133.797849,119.241495 131.308512,114.075476 131.308512,108.506819 C131.308512,102.750562 134.037316,97.4001333 140.249213,97.4001333 C144.689553,97.4001333 147.69,100.183505 148.319915,104.67059 L143.760151,105.320171 C143.548529,103.185743 142.437825,101.391419 140.128552,101.391419 C136.739513,101.391419 136.228403,105.9404 136.228403,108.569352 C136.228403,111.319543 136.978979,115.219581 140.340792,115.219581 C142.437825,115.219581 143.878337,113.704743 143.760151,111.53841 L139.857527,111.53841" id="Fill-64" fill="#000000"/>
                </g>
            </g>
        </g>
    </g>
<script xmlns=""/></svg>