<svg viewBox="0 0 101 21" xmlns="http://www.w3.org/2000/svg"><path d="M58.827 8.47h.721V5.597h-.721V8.47zM6.18 19.965h.72v-2.873h-.72v2.873zm63.834-.002v-.578l-1.578.004v-.625l1.267.006v-.577l-1.267.004v-.531l1.557.006v-.578H67.72v2.869h2.294zm-47.869.002v-.584l-1.572.004v-.625l1.267.008v-.582l-1.267.011v-.535l1.558.006v-.576h-2.275v2.873h2.289zM70.252 8.472V5.595h-.7l.015 1.92-1.304-1.92h-.78v2.877h.705l-.016-1.914 1.31 1.914h.77zm-4.887 8.622h-.752l-.761 2.131-.734-2.131h-.76l1.107 2.869h.781l1.119-2.869zm-48.041 2.877v-.582l-1.424.01.006-2.313h-.705v2.885h2.123zM65.037 8.468v-.58l-1.581.005v-.627l1.279.004v-.569l-1.279.007V6.17l1.566.012v-.584h-2.269v2.87h2.284zm-4.691 11.491v-.578l-1.58.002v-.623l1.272.006v-.576l-1.272.003v-.531l1.565.006v-.578h-2.269v2.869h2.284zm-.482-3.498l-.951-.637-.457.481 1.067.515.341-.359zm-47.42 3.51v-.582l-1.424.01.004-2.313h-.706v2.885h2.126zm43.459-.006v-2.873h-.701l.011 1.916-1.303-1.916h-.779v2.873h.7l-.014-1.914 1.307 1.914h.779zm-.035-13.783v-.584h-2.635v.584l.959-.012v2.298h.707V6.17l.969.012zm-5.087 13.781v-.578l-1.585.004v-.625l1.277.006v-.577l-1.277.004v-.531l1.564.006v-.578h-2.271v2.869h2.292zM3.262 17.092h-.766l-.757 2.135-.732-2.135H.248l1.11 2.873h.778l1.126-2.873zm47.742-9.893V5.56h-.717v1.488c0 .188 0 .371-.078.537-.107.213-.283.351-.541.351a.574.574 0 0 1-.484-.229c-.163-.195-.139-.429-.139-.659V5.56h-.712v1.639c0 .829.462 1.306 1.335 1.306.872 0 1.336-.477 1.336-1.306zm-4.83 11.137h-1.248v.533h.563c0 .094.004.186 0 .28-.022.296-.291.347-.523.347-.575 0-.796-.445-.796-.955 0-.48.246-.961.782-.961.273 0 .515.117.697.334l.445-.408c-.273-.326-.683-.481-1.099-.481-.901 0-1.561.594-1.561 1.506 0 .967.609 1.5 1.561 1.5.351 0 .861-.105 1.06-.431.11-.168.119-.334.119-.539v-.725zM44.838 6.068c-.574 0-.787.457-.787.961 0 .512.22.967.787.967.563 0 .782-.455.782-.967 0-.504-.209-.961-.782-.961zm0 2.463c-.902 0-1.527-.572-1.527-1.487 0-.874.654-1.507 1.527-1.507.885 0 1.524.636 1.524 1.521 0 .906-.639 1.473-1.524 1.473zm23.977 3.397l-.467 1.115h.953l-.486-1.115zm.984 2.291l-.279-.651h-1.407l-.271.651h-.779l1.32-2.88h.889l1.299 2.88h-.772zm-28.47-6.583c0-.65-.696-.839-1.204-.944-.205-.054-.552-.126-.552-.339 0-.229.312-.279.48-.279.265 0 .506.084.716.224.127-.158.256-.314.375-.463-.319-.226-.661-.312-1.054-.31-.547 0-1.231.267-1.231.904 0 .545.572.78 1.011.887.192.046.73.113.73.388 0 .242-.31.29-.494.29-.367 0-.635-.097-.916-.334l-.447.417c.363.317.818.464 1.29.464.565 0 1.296-.216 1.296-.905zm9.584 5.138c0-.962-.6-1.435-1.522-1.435h-1.162v2.88h1.188c.244 0 .492-.014.712-.108.584-.232.784-.752.784-1.337zm-.728-.036c0 .327-.06.614-.254.766-.167.133-.411.145-.667.145h-.323v-1.748h.491c.108 0 .203.02.279.048.327.097.474.395.474.789zm-13.762 7.225v-.578l-1.574.004v-.625l1.267.006v-.577l-1.267.004v-.531l1.561.006v-.578h-2.268v2.869h2.281zm28.716-5.744v-.582l-1.432.012.003-2.31h-.7v2.88h2.129zM31.93 18.518c0-.953-.599-1.428-1.523-1.428h-1.159v2.877h1.182c.25 0 .493-.014.716-.106.579-.234.784-.752.784-1.343zm-.722-.03c0 .321-.063.608-.264.762-.167.131-.407.147-.657.147h-.331v-1.743h.496c.103 0 .196.012.276.041.327.102.48.399.48.793zm.523-10.02v-.58l-1.574.005v-.627l1.268.004v-.569l-1.268.007V6.17l1.56.012v-.584h-2.271v2.87h2.285zm23.766 5.747v-.582l-1.577.006v-.623l1.274.008v-.582l-1.274.008v-.526l1.559.006v-.586h-2.266v2.871h2.284zm-28.696-5.74v-.58l-1.421.011.006-2.315h-.708v2.884h2.123zM17.324 6.16c-.251-.45-.649-.631-1.158-.631-.664 0-1.128.33-1.337.902a1.836 1.836 0 0 0-.102.619c0 .883.516 1.487 1.428 1.487.464 0 .923-.178 1.149-.591-.182-.106-.356-.214-.538-.321-.139.211-.329.358-.588.358-.536 0-.716-.48-.716-.933 0-.456.161-.964.708-.964.267 0 .501.146.609.388l.545-.314zm-4.801 2.308v-.58l-1.58.005v-.627l1.275.004v-.569l-1.275.007V6.17l1.562.012v-.584h-2.266v2.87h2.284zm-4.481-2.87h-.757l-.76 2.138-.733-2.138h-.756l1.108 2.87h.775l1.123-2.87zM3.51 8.475l-1.3-2.884h-.896L0 8.475h.777l.271-.653h1.406l.275.653h.781zM2.233 7.289h-.95l.466-1.113.484 1.113zm42.445 5.11a.381.381 0 0 0-.383.378.382.382 0 0 0 .762 0 .375.375 0 0 0-.379-.378zm-4.63 0a.38.38 0 1 0-.004.76.38.38 0 0 0 .004-.76zm-4.794 0a.375.375 0 0 0-.38.378c0 .215.167.383.38.383a.382.382 0 0 0 .379-.383.38.38 0 0 0-.379-.378zm-9.508 5.748a.382.382 0 0 0 0 .763.372.372 0 0 0 .373-.379.375.375 0 0 0-.373-.384zm4.719-5.748a.383.383 0 0 0-.387.378.39.39 0 0 0 .387.383.386.386 0 0 0 .377-.383.383.383 0 0 0-.377-.378zm-4.799 0a.38.38 0 1 0 .38.378.375.375 0 0 0-.38-.378zm-4.79 0a.383.383 0 0 0-.378.378c0 .207.173.383.378.383a.381.381 0 0 0 0-.761zm-4.792 0a.376.376 0 0 0-.382.378c0 .211.172.383.382.383a.38.38 0 1 0 0-.761zm-4.792 0a.378.378 0 0 0-.378.378c0 .207.173.383.378.383a.376.376 0 0 0 .378-.383.374.374 0 0 0-.378-.378zm-4.786 0a.38.38 0 1 0 0 .761.38.38 0 0 0 0-.761zM35.29 6.656a.381.381 0 0 0-.388.375c0 .211.173.381.388.381.21 0 .373-.168.373-.381a.375.375 0 0 0-.373-.375zM1.727 12.399a.387.387 0 0 0-.394.378.39.39 0 0 0 .394.383.374.374 0 0 0 .364-.383.372.372 0 0 0-.364-.378zm19.275-5.743a.378.378 0 0 0 0 .756.378.378 0 1 0 0-.756zm38.192 5.743a.38.38 0 1 0 0 .761.38.38 0 1 0 0-.761zm-19.146 5.748a.378.378 0 0 0-.38.384.382.382 0 1 0 .38-.384zm43.622-14h-.169l.001.135h-.366l.001-.126h-.17v.453h.17l-.001-.125h.366l-.001.133h.169v-.47zm13.234 5.941c-.132 0-.21.085-.226.211-.004.029-.004.057-.004.084v.354h.702v-.209h-.241v-.156c-.002-.151-.059-.284-.231-.284zm.001.21c.051 0 .076.04.076.087v.143h-.158v-.143c0-.052.027-.087.082-.087zm.126-1.921c-.224 0-.375.171-.375.391 0 .218.151.393.375.393.227 0 .361-.177.361-.393 0-.216-.134-.391-.361-.391zm-.007.217c.111 0 .209.048.209.174 0 .125-.096.175-.209.175-.114 0-.207-.05-.207-.175 0-.126.093-.174.207-.174zm.139-1.809c-.162 0-.208.183-.233.308-.006.032-.019.121-.06.121-.05 0-.05-.064-.05-.101 0-.055.015-.111.044-.158l-.143-.116a.474.474 0 0 0-.064.268c0 .139.065.32.231.32.136 0 .194-.15.218-.263.007-.036.025-.164.07-.164.053 0 .053.066.053.103a.336.336 0 0 1-.086.226l.121.135a.516.516 0 0 0 .128-.343c0-.144-.054-.336-.229-.336zm-.321-1.647h-.17v.684h.17v-.237h.534v-.21h-.534v-.237zm-15.105-2.64h-.054c-.149.002-.27.07-.27.243 0 .13.072.221.199.237.027.003.054.003.082.003h.043v.24l.21.001v-.388l-.249-.001c-.053 0-.088-.039-.088-.095 0-.05.039-.087.088-.087l.249-.003v-.39h-.21v.24zm1.936-.116h-.707v.211l.251-.002v.287l-.251-.001v.21h.707v-.21l-.28.001v-.287l.28.002v-.211zM83.67.794h-.169v.262l-.18-.12-.184.12-.002-.26h-.168v.594l.352-.224.351.224V.794zm15.35 10.963h-.17v.386h-.109v-.31h-.168l.005.31h-.091v-.383h-.168v.592h.701v-.595zm.002 1.585h-.705v.209l.402-.002-.402.303v.205h.705v-.207l-.401.002.401-.309v-.201zm-.535 3.306h-.168v.682h.168v-.236h.533v-.211h-.533v-.235zm.533-1.601h-.17v.385h-.109v-.309h-.168l.005.309h-.091v-.381h-.168v.594h.701v-.598zm.94-9.952v.238l.19.132-.19.132v.239l.341-.239.362.262v-.237l-.205-.142.205-.142v-.243l-.355.253-.348-.253zm-1.153.042c-.16 0-.208.184-.232.309-.006.032-.02.12-.061.12-.05 0-.05-.064-.05-.1 0-.055.015-.11.046-.16l-.144-.113a.476.476 0 0 0-.065.267c0 .137.067.319.232.319.136 0 .195-.151.218-.262.006-.036.023-.166.07-.166.052 0 .052.068.052.105 0 .09-.028.154-.085.224l.122.136a.518.518 0 0 0 .126-.343c0-.143-.054-.336-.229-.336zm1.544 1.644h-.399v.209h.363c.027 0 .055 0 .08.004.064.008.11.056.11.131a.129.129 0 0 1-.046.103c-.041.035-.093.03-.144.03h-.363v.21h.399c.2 0 .321-.119.321-.343 0-.226-.121-.344-.321-.344zm-1.63.245v.193l-.209-.095.209-.098zm.301-.358l-.705.333v.241l.705.34V7.35l-.149-.063v-.325l.149-.066v-.228zm1.644 1.82h-.171l.003.348-.538-.001v.209h.706v-.556zm-2.132.191c.06 0 .065.057.065.103v.131h-.13V8.78c0-.05.004-.101.065-.101zm.488-.265l-.306.173a.2.2 0 0 0-.186-.121c-.136 0-.2.099-.21.223-.003.027-.003.055-.003.08v.354h.705v-.21h-.268v-.112l.268-.151v-.236zm-.221 1.875c.063 0 .068.048.068.096v.145h-.136v-.139c0-.047.008-.102.068-.102zm-.273.014c.045 0 .058.034.058.074v.153h-.119v-.16c0-.041.016-.067.061-.067zm.291-.226a.18.18 0 0 0-.164.093.167.167 0 0 0-.143-.076.183.183 0 0 0-.125.051c-.064.058-.068.148-.068.228v.368h.701v-.362c0-.05 0-.115-.019-.164-.028-.082-.092-.138-.182-.138zm-4.734-1.65a.193.193 0 1 1 0-.387c.107 0 .195.087.195.194a.194.194 0 0 1-.195.193zm0 .418a.194.194 0 1 1 0-.388c.107 0 .195.087.195.193a.196.196 0 0 1-.195.195zm0 .415a.194.194 0 1 1 0-.387c.107 0 .195.087.195.193a.194.194 0 0 1-.195.194zm0 .833a.193.193 0 1 1 0-.387c.107 0 .195.086.195.193a.195.195 0 0 1-.195.194zm0 .415a.194.194 0 1 1 0-.388.194.194 0 0 1 0 .388zm0 .419a.196.196 0 0 1-.194-.196c0-.107.087-.193.194-.193a.194.194 0 1 1 0 .389zm-.416-2.5a.193.193 0 1 1 0-.387.194.194 0 1 1 0 .387zm0 .418a.194.194 0 1 1 0-.388.194.194 0 1 1 0 .388zm0 .415a.194.194 0 1 1 0-.387.194.194 0 1 1 0 .387zm0 .833a.193.193 0 1 1 0-.387.194.194 0 0 1 0 .387zm0 .415a.194.194 0 1 1 0-.388.194.194 0 0 1 0 .388zm0 .419a.196.196 0 0 1-.194-.196c0-.107.087-.193.194-.193.109 0 .195.086.195.193a.195.195 0 0 1-.195.196zm0 6.657a.196.196 0 0 1-.196-.193.194.194 0 1 1 .196.193zm-.417-9.157a.193.193 0 1 1 .194-.193.193.193 0 0 1-.194.193zm0 .418a.194.194 0 0 1 0-.388.194.194 0 1 1 0 .388zm0 .415a.193.193 0 1 1 .194-.194.194.194 0 0 1-.194.194zm0 .833a.195.195 0 0 1-.195-.194c0-.107.088-.193.195-.193.108 0 .194.084.194.193a.194.194 0 0 1-.194.194zm0 .415a.195.195 0 0 1-.195-.194.195.195 0 0 1 .389 0 .194.194 0 0 1-.194.194zm0 .419a.194.194 0 1 1 0-.389c.107 0 .194.086.194.193a.196.196 0 0 1-.194.196zm0 6.241a.195.195 0 0 1-.195-.193.194.194 0 0 1 .389 0 .195.195 0 0 1-.194.193zm0 .416a.195.195 0 0 1-.195-.193c0-.108.088-.196.195-.196a.195.195 0 0 1 0 .389zm0 .418a.194.194 0 1 1 0 0zm-.416-9.575a.193.193 0 0 1 0-.387c.107 0 .195.087.195.194a.194.194 0 0 1-.195.193zm0 2.5a.196.196 0 0 1-.193-.196.194.194 0 1 1 .193.196zm0 5.825a.193.193 0 0 1-.193-.193c0-.108.087-.196.193-.196a.194.194 0 1 1 0 .389zm0 .416a.193.193 0 1 1 0-.387c.107 0 .195.086.195.194a.195.195 0 0 1-.195.193zm0 .416a.194.194 0 0 1 0-.389c.107 0 .195.088.195.196a.195.195 0 0 1-.195.193zm0 .418a.195.195 0 0 1 0-.389.194.194 0 1 1 0 .389zm0 .416a.196.196 0 0 1-.193-.195.194.194 0 0 1 .388 0 .197.197 0 0 1-.195.195zm-.416-9.991a.193.193 0 1 1 0-.387c.108 0 .196.087.196.194a.194.194 0 0 1-.196.193zm0 .418a.194.194 0 1 1 .002-.388.194.194 0 0 1-.002.388zm0 .415a.193.193 0 1 1 0-.387c.108 0 .196.087.196.193a.195.195 0 0 1-.196.194zm0 .833a.193.193 0 0 1 0-.387c.108 0 .196.086.196.193a.195.195 0 0 1-.196.194zm0 .415a.194.194 0 1 1 0-.388c.108 0 .196.088.196.194a.195.195 0 0 1-.196.194zm0 .419a.195.195 0 0 1-.193-.196.194.194 0 1 1 .193.196zm0 5.409a.195.195 0 0 1-.195-.193.195.195 0 1 1 .195.193zm0 .416a.194.194 0 1 1 .194-.193.193.193 0 0 1-.194.193zm0 .416a.195.195 0 0 1-.195-.193.194.194 0 0 1 .389 0 .194.194 0 0 1-.194.193zm0 .834a.194.194 0 1 1 0 0zm0 .416a.197.197 0 0 1-.195-.195.194.194 0 1 1 .195.195zm0 .414a.196.196 0 0 1-.195-.195c0-.106.088-.192.195-.192.108 0 .194.086.194.192a.194.194 0 0 1-.194.195zm-.416-10.405a.193.193 0 1 1 0-.387c.108 0 .196.087.196.194a.194.194 0 0 1-.196.193zm0 .418a.194.194 0 1 1 .002-.388.194.194 0 0 1-.002.388zm0 .415a.193.193 0 1 1 0-.387c.108 0 .196.087.196.193a.195.195 0 0 1-.196.194zm0 .833a.193.193 0 0 1 0-.387c.108 0 .196.086.196.193a.195.195 0 0 1-.196.194zm0 .415a.194.194 0 1 1 0-.388c.108 0 .196.088.196.194a.195.195 0 0 1-.196.194zm0 .419a.194.194 0 1 1 0-.389.194.194 0 1 1 0 .389zm0 .413a.194.194 0 0 1-.195-.193c0-.107.088-.193.195-.193.108 0 .196.086.196.193a.194.194 0 0 1-.196.193zm0 .416a.193.193 0 0 1-.195-.192.196.196 0 0 1 .391 0 .194.194 0 0 1-.196.192zm0 .418a.195.195 0 0 1-.195-.194.196.196 0 0 1 .391 0 .195.195 0 0 1-.196.194zm0 .416a.194.194 0 0 1 0-.388c.108 0 .196.086.196.193a.195.195 0 0 1-.196.195zm0 .414a.194.194 0 0 1-.195-.193c0-.106.088-.191.195-.191.108 0 .196.085.196.191a.194.194 0 0 1-.196.193zm0 .418a.195.195 0 0 1-.195-.193c0-.108.088-.194.195-.194.108 0 .196.086.196.194a.196.196 0 0 1-.196.193zm0 .416a.195.195 0 0 1-.195-.195c0-.106.088-.192.195-.192.108 0 .196.086.196.192a.195.195 0 0 1-.196.195zm0 .416a.194.194 0 1 1 0-.389.194.194 0 1 1 0 .389zm0 .418a.196.196 0 0 1 0-.391c.108 0 .196.088.196.196a.196.196 0 0 1-.196.195zm0 .416a.194.194 0 1 1 0-.389c.106 0 .196.088.196.194a.196.196 0 0 1-.196.195zm0 .416a.195.195 0 1 1 0-.389.195.195 0 1 1 0 .389zm0 .416a.193.193 0 0 1-.195-.195.196.196 0 0 1 .391 0 .196.196 0 0 1-.196.195zm0 .416a.195.195 0 0 1-.195-.193c0-.108.088-.196.195-.196.108 0 .196.088.196.196a.196.196 0 0 1-.196.193zm0 .416a.194.194 0 1 1 0-.389.194.194 0 1 1 0 .389zm0 .416a.195.195 0 0 1-.195-.193c0-.108.088-.194.195-.194.108 0 .196.086.196.194a.196.196 0 0 1-.196.193zm0 .834a.194.194 0 1 1 0-.389.195.195 0 1 1 0 .389zm0 .416a.197.197 0 0 1-.195-.195c0-.11.086-.194.195-.194.108 0 .196.086.196.194a.197.197 0 0 1-.196.195zm0 .414a.196.196 0 0 1-.195-.195c0-.106.088-.192.195-.192.108 0 .196.086.196.192a.196.196 0 0 1-.196.195zm0 .416a.193.193 0 1 1 0-.387c.108 0 .196.086.196.194a.194.194 0 0 1-.196.193zm-.418-10.821a.193.193 0 1 1 0-.387c.108 0 .197.087.197.194a.195.195 0 0 1-.197.193zm0 .418a.194.194 0 1 1 0-.388c.108 0 .197.087.197.193a.197.197 0 0 1-.197.195zm0 .415a.194.194 0 1 1 0-.387c.108 0 .197.086.197.193a.195.195 0 0 1-.197.194zm0 .417a.194.194 0 0 1 0-.389c.108 0 .197.088.197.195 0 .105-.09.194-.197.194zm0 .416a.193.193 0 1 1 0-.387c.108 0 .197.086.197.193a.196.196 0 0 1-.197.194zm0 .415a.194.194 0 0 1 0-.388c.108 0 .197.088.197.194a.196.196 0 0 1-.197.194zm0 .419a.196.196 0 0 1-.194-.196c0-.107.087-.193.194-.193.108 0 .197.086.197.193a.198.198 0 0 1-.197.196zm0 .413a.193.193 0 1 1 0-.386c.108 0 .197.086.197.193a.195.195 0 0 1-.197.193zm0 .416a.192.192 0 0 1-.194-.192c0-.106.087-.194.194-.194.108 0 .197.088.197.194a.194.194 0 0 1-.197.192zm0 .418a.194.194 0 0 1 0-.388c.108 0 .197.088.197.194a.196.196 0 0 1-.197.194zm0 .416a.194.194 0 1 1 0-.388c.108 0 .197.086.197.193a.196.196 0 0 1-.197.195zm0 .414a.192.192 0 0 1 0-.384c.108 0 .197.085.197.191a.195.195 0 0 1-.197.193zm0 .418a.194.194 0 0 1 0-.387c.108 0 .197.086.197.194a.197.197 0 0 1-.197.193zm0 .416a.194.194 0 1 1 0-.387c.108 0 .197.086.197.192a.196.196 0 0 1-.197.195zm0 .416a.193.193 0 0 1-.194-.193.195.195 0 1 1 .391 0 .195.195 0 0 1-.197.193zm0 .418a.195.195 0 1 1 .197-.195.197.197 0 0 1-.197.195zm0 .416a.195.195 0 0 1-.194-.195c0-.108.087-.194.194-.194.107 0 .197.088.197.194a.197.197 0 0 1-.197.195zm0 .416a.194.194 0 0 1-.194-.195.195.195 0 1 1 .391 0 .196.196 0 0 1-.197.195zm0 .416a.195.195 0 0 1 0-.389c.108 0 .197.088.197.194a.197.197 0 0 1-.197.195zm0 .416a.195.195 0 0 1 0-.389c.108 0 .197.088.197.196a.197.197 0 0 1-.197.193zm0 2.496a.193.193 0 1 1 0-.387c.108 0 .197.086.197.192a.197.197 0 0 1-.197.195zm0 .416a.193.193 0 1 1 0-.387c.108 0 .197.086.197.194a.195.195 0 0 1-.197.193zm0 .418a.195.195 0 0 1-.194-.195.195.195 0 1 1 .391 0 .197.197 0 0 1-.197.195zm-.415-11.239a.194.194 0 0 1-.194-.193.195.195 0 0 1 .39 0 .195.195 0 0 1-.196.193zm0 .418a.196.196 0 0 1-.194-.195.195.195 0 0 1 .39 0 .197.197 0 0 1-.196.195zm0 .415a.194.194 0 0 1 0-.387c.107 0 .196.086.196.193a.195.195 0 0 1-.196.194zm0 .417a.195.195 0 0 1 0-.389c.107 0 .196.088.196.195a.196.196 0 0 1-.196.194zm0 .416a.195.195 0 0 1-.194-.194c0-.107.088-.193.194-.193.11 0 .196.084.196.193a.196.196 0 0 1-.196.194zm0 .415a.195.195 0 0 1-.194-.194c0-.106.088-.194.194-.194.107 0 .195.088.195.194a.195.195 0 0 1-.195.194zm0 .419a.197.197 0 0 1-.194-.196.194.194 0 1 1 .194.196zm0 .413a.194.194 0 0 1-.194-.193.194.194 0 1 1 .389 0 .194.194 0 0 1-.195.193zm0 .416a.193.193 0 0 1-.194-.192c0-.106.088-.194.194-.194.107 0 .195.088.195.194a.193.193 0 0 1-.195.192zm0 .418a.195.195 0 0 1-.194-.194c0-.106.088-.194.194-.194.107 0 .195.088.195.194a.195.195 0 0 1-.195.194zm0 .416a.194.194 0 1 1 0-.389.194.194 0 0 1 0 .389zm0 .414a.191.191 0 0 1-.194-.193c0-.106.088-.191.194-.191.107 0 .195.085.195.191a.194.194 0 0 1-.195.193zm0 .418a.195.195 0 0 1-.194-.193.194.194 0 0 1 .389 0 .195.195 0 0 1-.195.193zm0 .416a.194.194 0 0 1 0-.387c.107 0 .195.086.195.192a.195.195 0 0 1-.195.195zm0 .416a.194.194 0 0 1-.194-.193c0-.108.088-.196.194-.196a.194.194 0 1 1 0 .389zm0 .418a.196.196 0 0 1 0-.391.196.196 0 0 1 0 .391zm0 .416a.194.194 0 1 1 .195-.195.196.196 0 0 1-.195.195zm0 .416a.194.194 0 1 1 0-.389.194.194 0 0 1 0 .389zm0 .416a.196.196 0 0 1-.194-.195c0-.106.088-.194.194-.194.107 0 .195.088.195.194a.196.196 0 0 1-.195.195zm0 .416a.195.195 0 0 1-.194-.193c0-.108.088-.196.194-.196.107 0 .195.088.195.196a.195.195 0 0 1-.195.193zm0 .416a.194.194 0 1 1 0-.387c.107 0 .195.086.195.194a.194.194 0 0 1-.195.193zm0 .416a.195.195 0 0 1-.194-.193.194.194 0 0 1 .389 0 .195.195 0 0 1-.195.193zm0 .834a.194.194 0 1 1 .195-.195.196.196 0 0 1-.195.195zm0 .416a.194.194 0 1 1 .195-.195.197.197 0 0 1-.195.195zm0 .414a.196.196 0 0 1-.194-.195c0-.106.088-.192.194-.192.107 0 .195.086.195.192a.196.196 0 0 1-.195.195zm0 .416a.194.194 0 1 1 0-.387c.107 0 .195.086.195.194a.194.194 0 0 1-.195.193zm-.416-2.912a.195.195 0 0 1-.194-.193c0-.108.088-.196.194-.196.109 0 .196.088.196.196a.195.195 0 0 1-.196.193zm0 .416a.194.194 0 0 1-.194-.193c0-.108.088-.196.194-.196.109 0 .196.088.196.196a.194.194 0 0 1-.196.193zm0 .416a.195.195 0 0 1-.194-.193c0-.108.088-.194.194-.194.109 0 .196.086.196.194a.195.195 0 0 1-.196.193zm0 .834a.194.194 0 1 1 0-.389c.109 0 .196.086.196.194a.195.195 0 0 1-.196.195zm0 .416a.194.194 0 1 1 0-.389c.109 0 .196.086.196.194a.197.197 0 0 1-.196.195zm0 .414a.196.196 0 0 1-.194-.195c0-.106.088-.192.194-.192a.194.194 0 1 1 0 .387zm-.417-2.08a.194.194 0 0 1-.193-.193c0-.108.088-.196.193-.196a.194.194 0 1 1 0 .389zm0 .416a.195.195 0 0 1-.193-.193.195.195 0 0 1 .389 0 .196.196 0 0 1-.196.193zm0 .416a.195.195 0 0 1-.193-.193c0-.108.088-.196.193-.196.108 0 .196.088.196.196a.196.196 0 0 1-.196.193zm0 .418a.195.195 0 0 1-.193-.195.195.195 0 1 1 .193.195zm0 .416a.197.197 0 0 1-.193-.195.195.195 0 0 1 .389 0 .197.197 0 0 1-.196.195zm-.416-1.25a.193.193 0 1 1 0-.387c.108 0 .196.086.196.194a.196.196 0 0 1-.196.193zm0 .416a.194.194 0 1 1 .003-.389.194.194 0 0 1-.003.389zm0 .418a.195.195 0 1 1 .196-.195.196.196 0 0 1-.196.195zm-.416-.418a.194.194 0 1 1 .003-.389.194.194 0 0 1-.003.389zM82.448 7.81h-.134v-.351c.124.024.201.084.211.13-.015.038-.048.136-.077.221zm-.393 0h-.127c-.029-.085-.06-.183-.074-.221.008-.046.082-.103.201-.129v.35zm-1.186 1.23a.4.4 0 0 1 .575-.023s-.221.191-.575.023zm3.884-5.192v6.141l-.18-.227c-.032-.074-.5-.5-.5-.5.138-.393.072-.553.072-.553-.297.415-.488.107-.488.107.267-.425.012-.531.012-.531s.021.379-.289.245c-.347-.153-.282-.38-.743-.467l.15-.444v-.022c0-.213-.226-.384-.525-.406a.157.157 0 0 0 .074-.13.152.152 0 1 0-.229.13c-.296.026-.516.195-.516.406v.023l.15.449h.019c-.398.089-.508.29-.508.29-.266 0-.594.213-.384.679a1.3 1.3 0 0 1-.372-.286s-.016.629.67.629c.247 0 .544-.14.692-.14 0 0 .022.053-.084.075-.108.02-.361.042-.447.138 0 0 .255.308.807.064 0 0 .523 0 .769.414.135.23-.16.51-.16.51s.277 0 .416-.128c.137-.126-.037.222-.395.384-.119.054.49.17.701.043 0 0 .011.17-.137.254-.148.084-.447-.01-.447-.01s-.203.01-.341.064c0 0-.352.161-.382.17-.032.01-.352.202-.267-.244l.01-.256c0-.105-.072-.17-.072-.17s-.482-.318-.544-.552l-.183.106c-.669-.415-.957-1.246-.82-2.159 0 0-.031-.086-.105-.021-.073.064-1.022.756-.106 2.148 0 0-.742-.553-.824-1.845 0 0-.428.61.674 2.038 0 0-.747-.396-.972-1.384 0-.005-.778.994.662 2.195 0 0-.719-.365-1.073-.893 0 0 .144.739 1.328 1.266 0 0-.61-.02-1.365-.52 0 0-.092.7 1.102 1.193 0 0-.401.035-1.075-.372 0 0-.036.353 1.176.553 0 0-.401.156-1.194-.174 0 0 .109.864 1.594.847 0 0-.475.209-1.467.072 0 0 .483.402 1.502.055 0 0-.336.4-1.437.209 0 0 .611 1.047 1.992.41 0 0-.408.547-1.426.599 0 0 .789.266 1.672-.5 0 0-.717.684-1.227.883 0 0 .992.582 2.22-.801 0 0-.31.52-.538.756.319-.009.763-.851.82-.965-.005.016-.164.684-.236.846 0 0 .383.192 1.038-1.029 0 0-.019.191-.083.365-.062.172.083.027.083.027s.154-.027.273-.718l.037.363-.073.174.2-.072c.2-.065.017.134.017.134s-.383.037-.965.828c0 0-.008.174-.535.311 0 0-.139.01.008.119l.209.19.01.373-.565.599c-.263.283-.283-.107-.283-.107l-.026-.373c-.082-.573-.948-.838-1.029-.211 0 0 .2-.11.274-.018.072.092.008.11.008.11s.145.119.209.191c.064.072.038.393.038.393s-.01.097.091.207c0 0-.412-.295-.674-.344-1.042-.197-.977.898-.614.859 0 0-.08-.076-.005-.242.037-.082.172.045.172.045l.638.027c.254.008.216.053.118.137-.2.174-.52.334-.255.828 0 0-.065.268.29.295.355.027.311-.15.311-.15s-.371.113-.319-.135c.029-.127.181-.119.181-.119s.211-.377.52-.522c.308-.146.566.082.566.082s-.006.196.293.25c0 0 .065.209-.163.246 0 0 .274.122.394-.222 0 0 .213-.135.194-.326-.018-.19-.255-.43-.419-.457l.758-.788s-.002.336.325.463c0 0 .101-.199.035-.455l.347.184s-.1-.502-.017-.719c.081-.219.263-.492.263-.492s.133.6-.066 1.172c0 0 .085.054.394-.172 0 0-.5 1.201-1.205.553 0 0-.116 1.228 1.098.392 0 0-.004.27-.711.463-.429.119-.647.858-.647.858s.428-.329.637-.411c.209-.082.746-.263.849-.375 0 0-.138.387-1.013.694-1.082.383-1.119 1.601-.235 1.484 0 0-.256-.338-.128-.574 0 0 .144-.164.582-.445 0 0 .464-.246.555-.282 0 0-.489.532-.61.817-.202.484-.264.883.311.992 0 0-.127-.555.246-.953 0 0 .518-.574.681-.711 0 0-.099.855-.756 1.4 0 0 .211.11.493.219 0 0-.221.693.423 1.039l.001-1.037h9.806V3.848h-9.806zM94.876 18.5a.132.132 0 0 0-.132.131c0 .072.059.131.132.131a.129.129 0 0 0 .128-.131.129.129 0 0 0-.128-.131zm0 .547a.131.131 0 0 0-.132.133c0 .072.059.131.132.131a.13.13 0 0 0 .128-.131.13.13 0 0 0-.128-.133zm0 .549a.131.131 0 1 0 0 .263.13.13 0 0 0 .128-.13.13.13 0 0 0-.128-.133zm.546 1.097a.13.13 0 0 0-.131.129c0 .073.059.133.131.133.073 0 .132-.06.132-.133a.13.13 0 0 0-.132-.129zm0-.548a.13.13 0 1 0 0 .261.131.131 0 0 0 .132-.131.13.13 0 0 0-.132-.13zm0-.547a.13.13 0 0 0-.131.131c0 .072.06.13.131.13a.13.13 0 0 0 .132-.13.131.131 0 0 0-.132-.131zm0-.551a.133.133 0 0 0-.131.133c0 .07.06.131.131.131a.132.132 0 0 0 .132-.131.133.133 0 0 0-.132-.133zm0-.547a.131.131 0 0 0-.131.131.131.131 0 0 0 .263 0 .132.132 0 0 0-.132-.131zm-.546-4.387a.132.132 0 0 0-.132.131c0 .072.059.131.132.131a.129.129 0 0 0 .128-.131.129.129 0 0 0-.128-.131zm0 2.741a.132.132 0 0 0-.133.13c0 .073.06.131.133.131a.13.13 0 0 0 .128-.131.13.13 0 0 0-.128-.13zm0-.547a.13.13 0 0 0-.133.129c0 .072.06.13.133.13a.13.13 0 0 0 .128-.13.128.128 0 0 0-.128-.129zm0-.549a.132.132 0 0 0-.133.131c0 .07.06.131.133.131.07 0 .128-.061.128-.131a.13.13 0 0 0-.128-.131zm0 2.191a.134.134 0 0 0-.133.131c0 .074.06.133.133.133a.13.13 0 0 0 .128-.133.132.132 0 0 0-.128-.131zm0-3.289a.131.131 0 0 0-.132.133c0 .072.059.131.132.131a.13.13 0 0 0 .128-.131.13.13 0 0 0-.128-.133zm0 .549a.132.132 0 0 0 0 .264.13.13 0 0 0 .128-.131.13.13 0 0 0-.128-.133zm0 2.193a.133.133 0 0 0-.133.131c0 .073.06.131.133.131a.13.13 0 0 0 .128-.131.13.13 0 0 0-.128-.131zm.546-1.095a.13.13 0 0 0-.131.129c0 .072.059.13.131.13a.13.13 0 1 0 0-.259zm0 1.642a.132.132 0 1 0 0 .264.132.132 0 0 0 0-.264zm0-1.095a.13.13 0 1 0 0 .261.131.131 0 0 0 .132-.131.13.13 0 0 0-.132-.13zm0 .548a.13.13 0 1 0 0 .262.131.131 0 1 0 0-.262zm0-1.644a.13.13 0 1 0 0 .262.133.133 0 0 0 .132-.131.131.131 0 0 0-.132-.131zm0-.547a.131.131 0 0 0-.131.131.132.132 0 0 0 .263 0 .132.132 0 0 0-.132-.131zm0-.551a.133.133 0 0 0-.131.133c0 .07.06.131.131.131a.132.132 0 0 0 .132-.131.133.133 0 0 0-.132-.133zm0-.547a.131.131 0 0 0-.131.131.131.131 0 0 0 .263 0 .132.132 0 0 0-.132-.131zm-.545-4.383a.13.13 0 0 0 0 .261.129.129 0 0 0 .129-.129.13.13 0 0 0-.129-.132zm0 2.741a.13.13 0 0 0-.132.131.13.13 0 1 0 .261 0 .129.129 0 0 0-.129-.131zm0-.549a.131.131 0 1 0 0 .262.13.13 0 0 0 .129-.133.13.13 0 0 0-.129-.129zm0-.547a.13.13 0 0 0-.132.13.13.13 0 0 0 .261 0 .128.128 0 0 0-.129-.13zm0 2.191a.131.131 0 0 0 0 .262.13.13 0 0 0 .129-.131.13.13 0 0 0-.129-.131zm0-3.288a.129.129 0 0 0-.13.131c0 .073.058.133.13.133a.13.13 0 0 0 .129-.133.128.128 0 0 0-.129-.131zm0 .549a.13.13 0 0 0-.13.132.13.13 0 0 0 .259 0 .13.13 0 0 0-.129-.132zm0 2.193a.13.13 0 0 0-.132.129c0 .072.059.132.132.132a.13.13 0 0 0 0-.261zm.547-1.098a.13.13 0 0 0-.13.129.13.13 0 1 0 .13-.129zm0 1.644c-.07 0-.13.059-.13.131a.13.13 0 0 0 .13.131.131.131 0 0 0 0-.262zm0-1.095a.131.131 0 1 0 .132.131.13.13 0 0 0-.132-.131zm0 .549a.13.13 0 0 0-.13.129c0 .072.058.132.13.132.074 0 .132-.06.132-.132a.13.13 0 0 0-.132-.129zm0-1.645a.13.13 0 1 0 0 .26.13.13 0 1 0 0-.26zm0-.547a.13.13 0 0 0-.13.132c0 .07.06.129.13.129a.13.13 0 1 0 0-.261zm0-.55a.13.13 0 0 0-.13.131c0 .072.06.133.13.133a.132.132 0 0 0 0-.264zm0-.548a.13.13 0 1 0 .002.262.13.13 0 0 0-.002-.262zm-.547-4.384a.131.131 0 0 0 0 .262.13.13 0 0 0 .129-.13.13.13 0 0 0-.129-.132zm0 2.741a.132.132 0 0 0-.132.131.13.13 0 0 0 .132.129.127.127 0 0 0 .129-.129.13.13 0 0 0-.129-.131zm0-.548a.13.13 0 0 0-.132.13c0 .073.059.131.132.131a.13.13 0 0 0 .129-.131.129.129 0 0 0-.129-.13zm0-.547a.13.13 0 0 0-.132.13c0 .071.059.13.132.13a.13.13 0 0 0 .129-.13.128.128 0 0 0-.129-.13zm0 2.191a.131.131 0 0 0-.132.13c0 .072.059.132.132.132a.13.13 0 0 0 .129-.132.13.13 0 0 0-.129-.13zm0-3.289a.13.13 0 0 0-.13.132c0 .071.058.132.13.132a.131.131 0 0 0 .129-.132.13.13 0 0 0-.129-.132zm0 .548a.132.132 0 0 0 0 .263.13.13 0 0 0 .129-.13.13.13 0 0 0-.129-.133zm0 2.194a.131.131 0 0 0-.132.13c0 .072.059.131.132.131a.13.13 0 0 0 .129-.131.13.13 0 0 0-.129-.13zm.547-1.097a.13.13 0 0 0-.13.13.13.13 0 0 0 .13.131.13.13 0 1 0 0-.261zm0 1.644c-.07 0-.13.06-.13.13 0 .072.058.132.13.132a.13.13 0 1 0 0-.262zm0-1.096a.13.13 0 0 0-.13.131c0 .073.058.129.13.129a.129.129 0 0 0 .132-.129.131.131 0 0 0-.132-.131zm0 .549a.13.13 0 0 0 0 .261.131.131 0 0 0 .132-.131.13.13 0 0 0-.132-.13zm0-1.644a.13.13 0 0 0-.13.13.13.13 0 1 0 .262 0 .13.13 0 0 0-.132-.13zm0-.549a.131.131 0 0 0-.13.133c0 .07.06.131.13.131.074 0 .132-.06.132-.131a.131.131 0 0 0-.132-.133zm0-.549a.13.13 0 0 0-.13.132c0 .071.06.132.13.132a.133.133 0 0 0 .132-.132.131.131 0 0 0-.132-.132zm0-.548a.131.131 0 1 0 .132.132.132.132 0 0 0-.132-.132zM74.594 18.5a.131.131 0 0 0-.131.131.13.13 0 1 0 .26 0 .13.13 0 0 0-.129-.131zm10.414 2.193a.13.13 0 0 0-.131.129c0 .073.059.133.131.133.072 0 .13-.06.13-.133a.129.129 0 0 0-.13-.129zm0-.548a.13.13 0 1 0 0 .261.13.13 0 0 0 0-.261zm1.098.548a.13.13 0 0 0-.133.129c0 .073.059.133.133.133.071 0 .129-.06.129-.133a.129.129 0 0 0-.129-.129zm-.551 0a.13.13 0 0 0-.131.129c0 .073.06.133.131.133.072 0 .133-.06.133-.133a.131.131 0 0 0-.133-.129zm.551-.548a.131.131 0 0 0-.133.13.131.131 0 0 0 .262 0 .13.13 0 0 0-.129-.13zm-.551 0a.131.131 0 0 0-.131.13c0 .073.06.131.131.131a.133.133 0 0 0 .133-.131.132.132 0 0 0-.133-.13zm1.098.548a.13.13 0 0 0-.132.129.132.132 0 0 0 .263 0 .13.13 0 0 0-.131-.129zm1.098 0a.131.131 0 0 0-.135.129c0 .073.06.131.135.131a.13.13 0 0 0 .128-.131.128.128 0 0 0-.128-.129zm1.093 0a.13.13 0 1 0 0 .26.13.13 0 1 0 0-.26zm1.098 0a.13.13 0 0 0-.133.129.132.132 0 0 0 .264 0 .13.13 0 0 0-.131-.129zm1.096 0a.13.13 0 1 0 0 .26.13.13 0 1 0 0-.26zm-3.837 0a.13.13 0 0 0-.132.129c0 .073.059.133.132.133.071 0 .13-.06.13-.133a.13.13 0 0 0-.13-.129zm0-.548a.13.13 0 0 0-.132.13.131.131 0 0 0 .262 0 .13.13 0 0 0-.13-.13zm-.548 0a.131.131 0 0 0-.132.13.132.132 0 0 0 .263 0 .13.13 0 0 0-.131-.13zm1.644.548a.13.13 0 0 0-.131.129c0 .073.059.133.131.133.073 0 .13-.06.13-.133a.128.128 0 0 0-.13-.129zm0-.548a.13.13 0 1 0 0 .261c.071 0 .13-.06.13-.131a.13.13 0 0 0-.13-.13zm-.546 0a.132.132 0 0 0-.135.13c0 .073.06.131.135.131a.13.13 0 0 0 .128-.131.13.13 0 0 0-.128-.13zm1.642.548a.13.13 0 0 0-.13.129c0 .073.059.133.13.133.072 0 .131-.06.131-.133a.13.13 0 0 0-.131-.129zm0-.548a.13.13 0 1 0 0 .26.13.13 0 0 0 0-.26zm-.549 0a.13.13 0 1 0 0 .261.13.13 0 0 0 0-.261zm1.645.548a.13.13 0 0 0-.131.129c0 .073.058.133.131.133.072 0 .132-.06.132-.133a.13.13 0 0 0-.132-.129zm0-.548a.13.13 0 0 0-.131.13c0 .071.061.131.131.131a.132.132 0 0 0 .132-.131c0-.072-.06-.13-.132-.13zm-.547 0a.132.132 0 0 0-.133.13.132.132 0 0 0 .264 0 .13.13 0 0 0-.131-.13zm1.644.548a.129.129 0 0 0-.13.129c0 .073.058.133.13.133.073 0 .131-.06.131-.133a.13.13 0 0 0-.131-.129zm0-.548a.128.128 0 0 0-.13.13c0 .075.058.131.13.131a.13.13 0 0 0 .131-.131.13.13 0 0 0-.131-.13zm-.548 0a.13.13 0 0 0-.132.13c0 .073.059.131.132.131a.13.13 0 1 0 0-.261zm1.095.548a.13.13 0 0 0-.129.131.13.13 0 1 0 .261 0 .132.132 0 0 0-.132-.131zm.549 0a.13.13 0 1 0 0 .262c.07 0 .131-.06.131-.131a.134.134 0 0 0-.131-.131zm.549 0a.133.133 0 0 0-.133.131c0 .071.061.131.133.131.072 0 .131-.06.131-.131a.131.131 0 0 0-.131-.131zm-1.098-.548a.129.129 0 0 0-.129.13.13.13 0 0 0 .129.131.131.131 0 0 0 .132-.131.13.13 0 0 0-.132-.13zm.549 0a.13.13 0 1 0 0 .261c.07 0 .131-.058.131-.131a.13.13 0 0 0-.131-.13zm1.098.548a.13.13 0 0 0-.133.129c0 .073.058.133.133.133.071 0 .129-.06.129-.133a.129.129 0 0 0-.129-.129zm0-.548a.131.131 0 0 0-.133.13.131.131 0 0 0 .262 0 .13.13 0 0 0-.129-.13zm-.549 0a.132.132 0 0 0-.133.13c0 .073.061.131.133.131a.13.13 0 1 0 0-.261zm1.645.548a.13.13 0 0 0-.133.129c0 .073.059.133.133.133.07 0 .128-.06.128-.133a.128.128 0 0 0-.128-.129zm-.549 0a.13.13 0 0 0-.131.129c0 .073.058.133.131.133a.13.13 0 0 0 .129-.133.128.128 0 0 0-.129-.129zm.549-.548a.131.131 0 0 0-.133.13c0 .073.059.131.133.131a.13.13 0 0 0 .128-.131.13.13 0 0 0-.128-.13zm-.549 0a.13.13 0 0 0 0 .261.13.13 0 0 0 .129-.131.129.129 0 0 0-.129-.13zm-19.733.548a.13.13 0 0 0-.132.129c0 .073.06.133.132.133a.13.13 0 0 0 .129-.133.128.128 0 0 0-.129-.129zm0-.548a.131.131 0 0 0-.132.13c0 .073.06.131.132.131a.13.13 0 0 0 .129-.131.129.129 0 0 0-.129-.13zm0-1.098a.13.13 0 0 0-.131.133.13.13 0 1 0 .26 0 .129.129 0 0 0-.129-.133zm0 .549a.131.131 0 0 0 0 .263.129.129 0 0 0 .129-.13.13.13 0 0 0-.129-.133zm1.097-1.096a.132.132 0 0 0-.132.131.131.131 0 1 0 .132-.131zm0 2.193a.13.13 0 0 0-.132.129c0 .073.059.133.132.133.071 0 .13-.06.13-.133a.13.13 0 0 0-.13-.129zm-.55 0a.13.13 0 0 0-.131.129c0 .073.06.133.131.133.073 0 .133-.06.133-.133a.13.13 0 0 0-.133-.129zm.55-.548a.13.13 0 0 0-.132.13.131.131 0 0 0 .262 0 .13.13 0 0 0-.13-.13zm-.55 0a.131.131 0 0 0-.131.13.132.132 0 1 0 .264 0c0-.072-.06-.13-.133-.13zm.55-1.098a.133.133 0 0 0-.132.133c0 .07.061.131.132.131.07 0 .13-.061.13-.131a.133.133 0 0 0-.13-.133zm-.55.551a.131.131 0 0 0-.131.131.132.132 0 0 0 .264 0 .132.132 0 0 0-.133-.131zm1.097 1.095a.13.13 0 1 0 0 .26.132.132 0 0 0 .132-.131.13.13 0 0 0-.132-.129zm1.097 0a.13.13 0 1 0 0 0zm1.095 0a.13.13 0 1 0 0 .26.13.13 0 1 0 0-.26zm1.098 0a.13.13 0 0 0-.133.129c0 .073.059.131.133.131a.131.131 0 0 0 .131-.131.13.13 0 0 0-.131-.129zm1.095 0a.13.13 0 1 0 0 .26.13.13 0 0 0 .13-.131.128.128 0 0 0-.13-.129zm-4.385-1.095a.13.13 0 0 0-.13.131.131.131 0 0 0 .262 0 .132.132 0 0 0-.132-.131zm1.097 0a.128.128 0 0 0-.131.131.13.13 0 1 0 .26 0 .127.127 0 0 0-.129-.131zm1.095 0a.13.13 0 0 0-.131.131c0 .072.061.13.131.13a.13.13 0 0 0 .131-.13.128.128 0 0 0-.131-.131zm1.098 0a.131.131 0 0 0-.133.131c0 .072.059.13.133.13.07 0 .131-.058.131-.13a.131.131 0 0 0-.131-.131zm2.191 0a.13.13 0 0 0 0 .261.131.131 0 0 0 .132-.13.132.132 0 0 0-.132-.131zm-6.578-.551a.134.134 0 0 0-.131.133c0 .07.061.131.131.131a.133.133 0 0 0 .133-.131.134.134 0 0 0-.133-.133zm0-.547a.132.132 0 0 0-.131.131.132.132 0 0 0 .264 0 .133.133 0 0 0-.133-.131zm.55 1.096a.131.131 0 0 0-.132.133c0 .07.061.13.132.13.07 0 .13-.06.13-.13a.131.131 0 0 0-.13-.133zm1.095-1.096a.13.13 0 1 0 0 .262.132.132 0 0 0 .132-.131.132.132 0 0 0-.132-.131zm0 2.193a.13.13 0 0 0-.131.129c0 .073.058.133.131.133.072 0 .132-.06.132-.133a.13.13 0 0 0-.132-.129zm0-.548a.13.13 0 0 0-.131.13.132.132 0 0 0 .263 0c0-.072-.06-.13-.132-.13zm-.548 0a.13.13 0 0 0-.13.13.13.13 0 0 0 .13.131.132.132 0 0 0 .132-.131c0-.072-.06-.13-.132-.13zm.548-1.098a.133.133 0 0 0-.131.133c0 .07.06.131.131.131a.132.132 0 0 0 .132-.131.134.134 0 0 0-.132-.133zm-.548 0a.132.132 0 0 0-.13.133c0 .07.06.131.13.131a.134.134 0 0 0 .132-.131.134.134 0 0 0-.132-.133zm0-.547a.13.13 0 0 0-.13.131.13.13 0 0 0 .13.131.132.132 0 0 0 .132-.131.132.132 0 0 0-.132-.131zm.548 1.096a.13.13 0 0 0-.131.133c0 .07.06.13.131.13.071 0 .132-.06.132-.13a.132.132 0 0 0-.132-.133zm1.098-1.096a.133.133 0 0 0-.133.131c0 .072.06.131.133.131.07 0 .129-.061.129-.131a.132.132 0 0 0-.129-.131zm0 2.193a.13.13 0 0 0-.133.129c0 .073.06.133.133.133.071 0 .129-.06.129-.133a.129.129 0 0 0-.129-.129zm0-.548a.132.132 0 0 0-.133.13c0 .073.06.131.133.131.07 0 .129-.06.129-.131a.13.13 0 0 0-.129-.13zm-.549 0a.13.13 0 0 0-.131.13.13.13 0 1 0 .26 0 .129.129 0 0 0-.129-.13zm.549-1.098a.134.134 0 0 0-.133.133c0 .07.061.131.133.131a.132.132 0 0 0 0-.264zm-.549 0a.13.13 0 0 0-.131.133.13.13 0 1 0 .26 0 .129.129 0 0 0-.129-.133zm0-.547a.13.13 0 1 0 0 .262.13.13 0 0 0 .129-.131.13.13 0 0 0-.129-.131zm.549 1.096a.132.132 0 0 0-.133.133c0 .07.061.13.133.13a.132.132 0 0 0 0-.263zm1.095-1.096a.13.13 0 0 0-.13.131.13.13 0 1 0 .261 0 .131.131 0 0 0-.131-.131zm0 2.193a.129.129 0 0 0-.13.129c0 .073.058.133.13.133.072 0 .13-.06.13-.133a.129.129 0 0 0-.13-.129zm0-.548a.13.13 0 0 0-.13.13.13.13 0 1 0 .26 0 .13.13 0 0 0-.13-.13zm-.549 0a.13.13 0 1 0 0 .261.128.128 0 0 0 .131-.131.13.13 0 0 0-.131-.13zm.549-1.098a.131.131 0 0 0-.13.133.13.13 0 0 0 .13.131.133.133 0 0 0 .131-.131.133.133 0 0 0-.131-.133zm-.549 0a.133.133 0 0 0-.131.133c0 .07.061.131.131.131a.131.131 0 0 0 .131-.131.13.13 0 0 0-.131-.133zm0-.547a.134.134 0 0 0-.131.131c0 .07.061.131.131.131a.131.131 0 0 0 .131-.131.131.131 0 0 0-.131-.131zm.549 1.096a.13.13 0 0 0-.13.133c0 .07.06.13.13.13a.131.131 0 0 0 0-.263zm1.097-1.096a.131.131 0 1 0-.002.262.131.131 0 0 0 .002-.262zm-.001 2.193a.13.13 0 0 0-.131.129c0 .073.058.133.131.133.072 0 .131-.06.131-.133a.13.13 0 0 0-.131-.129zm0-.548a.13.13 0 0 0-.131.13.13.13 0 1 0 .131-.13zm-.547 0a.131.131 0 0 0-.133.13c0 .073.059.131.133.131a.131.131 0 0 0 .131-.131c0-.072-.06-.13-.131-.13zm.548-1.098a.133.133 0 0 0-.132.133c0 .07.06.131.132.131.071 0 .13-.059.13-.131a.13.13 0 0 0-.13-.133zm-.548 0a.132.132 0 1 0 0 .264c.07 0 .131-.061.131-.131a.134.134 0 0 0-.131-.133zm0-.547a.132.132 0 0 0-.133.131.132.132 0 0 0 .264 0 .132.132 0 0 0-.131-.131zm.548 1.096a.13.13 0 0 0-.132.133c0 .07.06.13.132.13.07 0 .13-.06.13-.13a.131.131 0 0 0-.13-.133zm1.096-1.096a.131.131 0 0 0-.131.131.13.13 0 1 0 .131-.131zm0 2.193a.13.13 0 0 0-.131.129c0 .073.058.133.131.133a.13.13 0 0 0 .129-.133.128.128 0 0 0-.129-.129zm0-.548a.129.129 0 0 0-.131.13c0 .075.058.131.131.131a.13.13 0 0 0 .129-.131.129.129 0 0 0-.129-.13zm-.549 0a.13.13 0 1 0 0 .261.13.13 0 0 0 0-.261zm0-.549a.131.131 0 0 0 0 .263.13.13 0 0 0 .13-.13.13.13 0 0 0-.13-.133zm.549-.549a.131.131 0 0 0-.131.133c0 .072.059.131.131.131a.133.133 0 0 0 .131-.131.133.133 0 0 0-.131-.133zm-.549 0a.133.133 0 0 0-.131.133c0 .072.059.131.131.131a.13.13 0 0 0 .13-.131.13.13 0 0 0-.13-.133zm0-.547a.131.131 0 0 0-.131.131c0 .072.059.131.131.131a.13.13 0 0 0 .13-.131.13.13 0 0 0-.13-.131zm.549 1.096a.13.13 0 0 0-.131.133c0 .072.059.13.131.13a.132.132 0 0 0 .131-.13.13.13 0 0 0-.131-.133zm1.096-1.096a.131.131 0 0 0-.131.131.13.13 0 0 0 .261 0 .13.13 0 0 0-.13-.131zm-.549 2.193a.131.131 0 0 0-.131.131c0 .071.059.131.131.131.072 0 .132-.06.132-.131a.132.132 0 0 0-.132-.131zm.549 0a.13.13 0 1 0 0 .262c.07 0 .13-.06.13-.131 0-.07-.06-.131-.13-.131zm.549 0a.132.132 0 0 0-.133.131.132.132 0 0 0 .264 0 .131.131 0 0 0-.131-.131zm-1.098-.548a.13.13 0 1 0 0 .261.132.132 0 0 0 .132-.131c0-.072-.06-.13-.132-.13zm.549 0a.13.13 0 1 0 0 .261.13.13 0 0 0 0-.261zm0-1.098a.131.131 0 0 0-.131.133c0 .072.059.131.131.131.07 0 .13-.061.13-.131a.132.132 0 0 0-.13-.133zm-.549 0a.132.132 0 0 0 0 .264.132.132 0 0 0 .132-.131.134.134 0 0 0-.132-.133zm0-.547a.131.131 0 0 0-.131.131.131.131 0 0 0 .263 0 .132.132 0 0 0-.132-.131zm.549 1.096a.131.131 0 0 0 0 .263c.07 0 .13-.06.13-.13a.13.13 0 0 0-.13-.133zm1.096-1.096a.13.13 0 1 0 0 .262.132.132 0 0 0 .132-.131.132.132 0 0 0-.132-.131zm0 2.193a.13.13 0 0 0-.131.129c0 .073.058.133.131.133.072 0 .132-.06.132-.133a.13.13 0 0 0-.132-.129zm0-.548a.13.13 0 0 0-.131.13.132.132 0 0 0 .263 0c0-.072-.06-.13-.132-.13zm-.547 0a.131.131 0 0 0-.133.13c0 .073.059.131.133.131a.13.13 0 1 0 0-.261zm0-.549a.132.132 0 1 0-.003.263.132.132 0 0 0 .003-.263zm0-.549a.132.132 0 1 0-.003.263.132.132 0 0 0 .003-.263zm1.644-.547a.131.131 0 1 0-.002.262.131.131 0 0 0 .002-.262zm0 2.193a.13.13 0 0 0-.133.129c0 .073.059.133.133.133.071 0 .129-.06.129-.133a.129.129 0 0 0-.129-.129zm-.55 0a.128.128 0 0 0-.129.129.13.13 0 0 0 .129.133c.073 0 .132-.06.132-.133a.13.13 0 0 0-.132-.129zm0-.548a.129.129 0 0 0-.129.13.13.13 0 0 0 .129.131.131.131 0 0 0 .132-.131.13.13 0 0 0-.132-.13zm0-1.098a.131.131 0 0 0-.129.133c0 .07.058.131.129.131a.132.132 0 0 0 .132-.131.131.131 0 0 0-.132-.133zm-9.317-4.934a.131.131 0 0 0-.131.131.13.13 0 1 0 .26 0 .13.13 0 0 0-.129-.131zm7.674 3.836a.134.134 0 0 0-.131.131c0 .074.059.133.131.133.072 0 .13-.059.13-.133a.132.132 0 0 0-.13-.131zm.549 0a.134.134 0 0 0-.132.131c0 .074.06.133.132.133a.132.132 0 0 0 .131-.133.134.134 0 0 0-.131-.131zm0-1.095a.131.131 0 0 0-.132.13.132.132 0 0 0 .263 0 .13.13 0 0 0-.131-.13zm0 .548a.132.132 0 0 0-.132.131.132.132 0 0 0 .263 0 .131.131 0 0 0-.131-.131zm-2.741.547a.13.13 0 1 0 0 .262c.071 0 .13-.059.13-.131a.135.135 0 0 0-.13-.131zm1.096 0a.133.133 0 0 0-.132.131c0 .072.059.131.132.131a.131.131 0 0 0 0-.262zm-4.934 0a.132.132 0 0 0-.13.131.13.13 0 0 0 .13.131.132.132 0 0 0 .132-.131.136.136 0 0 0-.132-.131zm1.097 0a.13.13 0 1 0 0 .262.131.131 0 0 0 0-.262zm1.096-1.095a.131.131 0 0 0-.132.13c0 .073.06.131.132.131a.13.13 0 0 0 .13-.131.13.13 0 0 0-.13-.13zm0 1.095a.135.135 0 0 0-.132.131c0 .074.06.133.132.133a.13.13 0 0 0 .13-.133.131.131 0 0 0-.13-.131zm0-.547a.132.132 0 0 0-.132.131c0 .073.06.131.132.131a.13.13 0 0 0 .13-.131.13.13 0 0 0-.13-.131zm1.097-.548a.132.132 0 0 0-.133.13c0 .073.061.131.133.131a.13.13 0 0 0 .131-.131c0-.07-.061-.13-.131-.13zm0 1.095a.135.135 0 0 0-.133.131.132.132 0 1 0 .264 0 .134.134 0 0 0-.131-.131zm-.549 0a.132.132 0 1 0 0 .264.132.132 0 0 0 0-.264zm0-1.095a.13.13 0 1 0 0 .261.13.13 0 1 0 0-.261zm0 .548a.13.13 0 1 0 0 .262.13.13 0 0 0 0-.262zm.549 0a.133.133 0 0 0-.133.131c0 .073.061.131.133.131a.13.13 0 1 0 0-.262zm1.095.547a.132.132 0 1 0 0 .264.132.132 0 0 0 0-.264zm-.547-1.095a.13.13 0 0 0-.131.13.13.13 0 0 0 .261 0c0-.07-.06-.13-.13-.13zm0 .548a.13.13 0 1 0 .13.131.132.132 0 0 0-.13-.131zm1.645.547a.135.135 0 0 0-.133.131c0 .074.061.133.133.133.07 0 .13-.059.13-.133 0-.07-.06-.131-.13-.131zm-.549-.547a.131.131 0 0 0 0 .262.13.13 0 0 0 .129-.131.13.13 0 0 0-.129-.131zm.549 0a.133.133 0 0 0-.133.131.131.131 0 1 0 .133-.131zm-7.127-.548a.131.131 0 0 0-.132.13c0 .073.06.131.132.131a.13.13 0 0 0 .129-.131.129.129 0 0 0-.129-.13zm0-.547a.13.13 0 0 0-.132.129c0 .072.06.13.132.13a.129.129 0 0 0 .129-.13.127.127 0 0 0-.129-.129zm0-.549a.132.132 0 0 0-.132.131c0 .07.06.131.132.131a.131.131 0 0 0 .129-.131.13.13 0 0 0-.129-.131zm0 2.191a.134.134 0 0 0-.132.131.13.13 0 1 0 .261 0 .131.131 0 0 0-.129-.131zm0-3.289a.13.13 0 0 0-.131.133.13.13 0 1 0 .26 0 .129.129 0 0 0-.129-.133zm0 .549a.132.132 0 0 0 0 .264.13.13 0 0 0 .129-.131.13.13 0 0 0-.129-.133zm0 2.193a.132.132 0 0 0-.132.131c0 .073.06.131.132.131a.13.13 0 0 0 .129-.131.13.13 0 0 0-.129-.131zm1.097-3.289a.132.132 0 0 0-.132.131.131.131 0 1 0 .132-.131zm0 2.741a.13.13 0 0 0-.132.13.131.131 0 0 0 .262 0 .13.13 0 0 0-.13-.13zm0-.547a.13.13 0 1 0 0 .259.13.13 0 0 0 .13-.13.129.129 0 0 0-.13-.129zm-.55 0a.13.13 0 0 0-.131.129c0 .072.06.13.131.13a.132.132 0 0 0 .133-.13.13.13 0 0 0-.133-.129zm.55-.549a.131.131 0 0 0-.132.131c0 .07.059.131.132.131.071 0 .13-.061.13-.131a.13.13 0 0 0-.13-.131zm0 2.191a.134.134 0 0 0-.132.131c0 .074.059.133.132.133a.132.132 0 0 0 0-.264zm-.55 0a.134.134 0 0 0-.131.131c0 .074.06.133.131.133a.133.133 0 0 0 .133-.133c0-.07-.06-.131-.133-.131zm0-1.095a.131.131 0 0 0-.131.13.132.132 0 1 0 .264 0c0-.072-.06-.13-.133-.13zm0 .548a.132.132 0 0 0-.131.131.132.132 0 1 0 .264 0 .133.133 0 0 0-.133-.131zm0-1.644a.131.131 0 0 0-.131.131c0 .07.06.131.131.131a.134.134 0 0 0 .133-.131.132.132 0 0 0-.133-.131zm.55-1.098a.133.133 0 0 0-.132.133c0 .07.061.131.132.131.07 0 .13-.061.13-.131a.133.133 0 0 0-.13-.133zm-.55.551a.132.132 0 0 0-.131.131c0 .072.061.131.131.131a.133.133 0 0 0 .133-.131.133.133 0 0 0-.133-.131zm1.097 1.096a.13.13 0 0 0 0 .259.131.131 0 0 0 .132-.13.13.13 0 0 0-.132-.129zm1.097 0a.128.128 0 0 0-.131.129.13.13 0 1 0 .26 0 .127.127 0 0 0-.129-.129zm1.095 0a.13.13 0 0 0-.131.129c0 .072.059.13.131.13a.128.128 0 0 0 .131-.13.13.13 0 0 0-.131-.129zm-2.192-1.096a.13.13 0 0 0-.13.131c0 .072.06.131.13.131a.133.133 0 0 0 .132-.131.132.132 0 0 0-.132-.131zm1.097 0a.129.129 0 0 0-.131.131.13.13 0 1 0 .26 0 .127.127 0 0 0-.129-.131zm1.095 0a.131.131 0 0 0-.131.131c0 .072.061.131.131.131a.131.131 0 0 0 .131-.131.129.129 0 0 0-.131-.131zm1.098 0a.132.132 0 0 0-.133.131.132.132 0 0 0 .264 0 .132.132 0 0 0-.131-.131zm2.191 0a.13.13 0 0 0-.131.131.131.131 0 0 0 .263 0 .132.132 0 0 0-.132-.131zm-6.578-.551a.134.134 0 0 0-.131.133c0 .07.061.131.131.131a.133.133 0 0 0 .133-.131.134.134 0 0 0-.133-.133zm0-.547a.132.132 0 0 0-.131.131.132.132 0 0 0 .264 0 .133.133 0 0 0-.133-.131zm.55 1.096a.132.132 0 0 0-.132.133c0 .07.061.131.132.131a.132.132 0 1 0 0-.264zm0 2.193a.131.131 0 1 0 0 0zm1.095-3.289a.13.13 0 1 0 0 .262.132.132 0 0 0 .132-.131.132.132 0 0 0-.132-.131zm0 2.741a.13.13 0 0 0-.131.13.132.132 0 0 0 .263 0c0-.072-.06-.13-.132-.13zm0-.547a.128.128 0 0 0-.131.129c0 .072.058.13.131.13a.131.131 0 0 0 .132-.13.13.13 0 0 0-.132-.129zm0-.549a.13.13 0 0 0-.131.131c0 .07.058.131.131.131a.134.134 0 0 0 .132-.131.132.132 0 0 0-.132-.131zm0 2.191a.133.133 0 0 0-.131.131.131.131 0 1 0 .263 0c0-.07-.06-.131-.132-.131zm-.548-1.095a.13.13 0 0 0-.13.13.13.13 0 0 0 .13.131.132.132 0 0 0 .132-.131c0-.072-.06-.13-.132-.13zm0 .548a.13.13 0 0 0-.13.131.13.13 0 0 0 .13.131.132.132 0 0 0 .132-.131.133.133 0 0 0-.132-.131zm0-1.644a.13.13 0 0 0-.13.131c0 .07.058.131.13.131a.134.134 0 0 0 .132-.131.132.132 0 0 0-.132-.131zm.548-1.098a.133.133 0 0 0-.131.133c0 .07.06.131.131.131a.132.132 0 0 0 .132-.131.134.134 0 0 0-.132-.133zm-.548 0a.132.132 0 0 0-.13.133c0 .07.06.131.13.131a.134.134 0 0 0 .132-.131.134.134 0 0 0-.132-.133zm0-.547a.13.13 0 0 0-.13.131.13.13 0 0 0 .13.131.132.132 0 0 0 .132-.131.132.132 0 0 0-.132-.131zm.548 1.096a.131.131 0 0 0-.131.133c0 .07.06.131.131.131a.134.134 0 0 0 .132-.131.133.133 0 0 0-.132-.133zm0 2.193a.13.13 0 1 0 0 .262.132.132 0 0 0 .132-.131.132.132 0 0 0-.132-.131zm1.098-3.289a.133.133 0 0 0-.133.131c0 .072.06.131.133.131.07 0 .129-.06.129-.131a.132.132 0 0 0-.129-.131zm0 2.741a.132.132 0 0 0-.133.13c0 .073.06.131.133.131a.13.13 0 0 0 .129-.131c0-.07-.059-.13-.129-.13zm0-.547a.13.13 0 0 0-.133.129c0 .072.06.13.133.13a.13.13 0 0 0 0-.259zm0-.549a.132.132 0 0 0-.133.131c0 .07.06.131.133.131.07 0 .129-.061.129-.131a.13.13 0 0 0-.129-.131zm0 2.191a.135.135 0 0 0-.133.131c0 .074.06.133.133.133a.13.13 0 0 0 .129-.133.132.132 0 0 0-.129-.131zm-.549-1.095a.13.13 0 0 0-.131.13.13.13 0 1 0 .26 0 .129.129 0 0 0-.129-.13zm0 .548a.13.13 0 1 0 0 .262.13.13 0 0 0 .129-.131.13.13 0 0 0-.129-.131zm0-1.644a.13.13 0 0 0-.131.131c0 .07.058.131.131.131a.131.131 0 0 0 .129-.131.13.13 0 0 0-.129-.131zm.549-1.098a.134.134 0 0 0-.133.133c0 .07.061.131.133.131a.132.132 0 0 0 0-.264zm-.549 0a.13.13 0 0 0-.131.133.13.13 0 1 0 .26 0 .129.129 0 0 0-.129-.133zm0-.547a.13.13 0 1 0 0 .262.13.13 0 0 0 .129-.131.13.13 0 0 0-.129-.131zm.549 1.096a.133.133 0 0 0-.133.133c0 .07.061.131.133.131.07 0 .129-.061.129-.131a.133.133 0 0 0-.129-.133zm0 2.193a.133.133 0 0 0-.133.131c0 .073.06.131.133.131a.131.131 0 0 0 0-.262zm1.095-3.289a.13.13 0 0 0-.13.131.13.13 0 1 0 .261 0 .131.131 0 0 0-.131-.131zm0 2.194a.13.13 0 1 0 .13.129.128.128 0 0 0-.13-.129zm0-.549a.13.13 0 0 0-.13.131c0 .07.058.131.13.131.072 0 .13-.061.13-.131a.13.13 0 0 0-.13-.131zm-.549 0a.13.13 0 1 0 0 .262.13.13 0 1 0 0-.262zm.549-1.098a.131.131 0 0 0-.13.133.13.13 0 0 0 .13.131.133.133 0 0 0 .131-.131.133.133 0 0 0-.131-.133zm-.549 0a.133.133 0 0 0-.131.133c0 .07.061.131.131.131a.131.131 0 0 0 .131-.131.13.13 0 0 0-.131-.133zm0-.547a.134.134 0 0 0-.131.131c0 .071.061.131.131.131a.131.131 0 0 0 .131-.131.131.131 0 0 0-.131-.131zm.549 1.096a.131.131 0 0 0-.13.133c0 .07.06.131.13.131a.132.132 0 0 0 0-.264zm1.097-1.096a.131.131 0 1 0-.002.262.131.131 0 0 0 .002-.262zm-.001 1.645a.13.13 0 0 0-.131.131c0 .07.059.131.131.131a.13.13 0 1 0 0-.262zm-.547 0a.131.131 0 0 0-.133.131c0 .07.059.131.133.131a.133.133 0 0 0 .131-.131.131.131 0 0 0-.131-.131zm.548-1.098a.133.133 0 0 0-.132.133c0 .07.06.131.132.131.071 0 .13-.059.13-.131a.13.13 0 0 0-.13-.133zm-.548 0a.132.132 0 1 0 0 .264c.07 0 .131-.061.131-.131a.134.134 0 0 0-.131-.133zm0-.547a.132.132 0 0 0-.133.131.132.132 0 0 0 .264 0 .132.132 0 0 0-.131-.131zm.548 1.096a.131.131 0 0 0-.132.133c0 .07.06.131.132.131a.132.132 0 1 0 0-.264zm.547.549a.13.13 0 1 0 0 .262.13.13 0 0 0 0-.262zm.549-1.098a.131.131 0 0 0-.131.133c0 .072.059.131.131.131a.133.133 0 0 0 .131-.131.133.133 0 0 0-.131-.133zm-.549 0a.133.133 0 0 0-.131.133c0 .072.059.131.131.131a.13.13 0 0 0 .13-.131.13.13 0 0 0-.13-.133zm.549.549a.131.131 0 0 0-.131.133c0 .072.059.131.131.131a.133.133 0 0 0 .131-.131.131.131 0 0 0-.131-.133zm1.096-1.096a.131.131 0 0 0-.131.131.13.13 0 0 0 .261 0 .13.13 0 0 0-.13-.131zm.549 2.194a.131.131 0 0 0-.133.131c0 .072.059.13.133.13a.13.13 0 1 0 0-.261zm-1.098-.549a.13.13 0 1 0 0 .262.134.134 0 0 0 .132-.131.132.132 0 0 0-.132-.131zm.549-1.098a.131.131 0 0 0-.131.133c0 .072.059.131.131.131.07 0 .13-.061.13-.131a.132.132 0 0 0-.13-.133zm-.549 0a.132.132 0 0 0 0 .264.132.132 0 0 0 .132-.131.134.134 0 0 0-.132-.133zm0-.547a.131.131 0 0 0-.131.131.131.131 0 0 0 .263 0 .132.132 0 0 0-.132-.131zm1.645 2.194a.128.128 0 0 0-.131.129c0 .074.058.13.131.13a.131.131 0 0 0 .132-.13.13.13 0 0 0-.132-.129zm-.547-2.194a.132.132 0 0 0-.133.131.132.132 0 0 0 .264 0 .131.131 0 0 0-.131-.131zm1.094 1.096a.13.13 0 0 0-.129.133c0 .07.058.131.129.131a.132.132 0 0 0 0-.264zM74.597 9.73a.133.133 0 0 0-.132.132c0 .07.06.129.132.129a.13.13 0 0 0 .129-.129.13.13 0 0 0-.129-.132zm1.644 3.836a.131.131 0 0 0 0 .262.13.13 0 0 0 .131-.131.134.134 0 0 0-.131-.131zm1.096 0a.13.13 0 1 0 0 .262.13.13 0 0 0 .129-.131.13.13 0 0 0-.129-.131zm1.095-1.095a.131.131 0 0 0-.131.131c0 .071.061.131.131.131.072 0 .131-.06.131-.131a.13.13 0 0 0-.131-.131zm0 1.095a.133.133 0 0 0-.131.131.13.13 0 1 0 .131-.131zm0-.546a.132.132 0 0 0-.131.129c0 .072.061.132.131.132a.13.13 0 1 0 0-.261zm.549.546a.13.13 0 1 0 0 .262.13.13 0 0 0 0-.262zm0-.546a.13.13 0 1 0 0 .261.13.13 0 1 0 0-.261zm.549 0a.13.13 0 0 0-.132.129c0 .072.059.132.132.132.072 0 .131-.06.131-.132a.132.132 0 0 0-.131-.129zm-4.934-.549a.13.13 0 0 0-.131.131c0 .071.059.131.131.131a.13.13 0 0 0 .13-.131.129.129 0 0 0-.13-.131zm0-.549a.131.131 0 0 0 0 .262.13.13 0 0 0 .13-.133.13.13 0 0 0-.13-.129zm0-.547a.13.13 0 1 0 0 .26.13.13 0 0 0 .13-.13.128.128 0 0 0-.13-.13zm0 2.191a.13.13 0 1 0 0 .262.13.13 0 0 0 0-.262zm0-3.288a.13.13 0 0 0-.131.131c0 .073.059.133.131.133.073 0 .13-.06.13-.133a.13.13 0 0 0-.13-.131zm0 .549a.13.13 0 1 0 0 .261c.073 0 .13-.058.13-.129a.13.13 0 0 0-.13-.132zm0 2.193a.13.13 0 1 0 .13.129.129.129 0 0 0-.13-.129zm1.096-3.29a.132.132 0 0 0-.131.132c0 .07.06.129.131.129a.13.13 0 1 0 0-.261zm0 2.741a.13.13 0 1 0 .131.131.13.13 0 0 0-.131-.131zm0-.549a.132.132 0 0 0-.131.129c0 .075.06.133.131.133a.13.13 0 0 0 .131-.133.13.13 0 0 0-.131-.129zm-.548 0a.131.131 0 1 0 0 .262.133.133 0 0 0 .132-.133.133.133 0 0 0-.132-.129zm.548-.547a.13.13 0 0 0-.131.13.131.131 0 0 0 .262 0 .13.13 0 0 0-.131-.13zm0 2.191a.133.133 0 0 0-.131.131c0 .073.06.131.131.131a.13.13 0 0 0 .131-.131.131.131 0 0 0-.131-.131zm-.548 0a.133.133 0 0 0-.132.131.132.132 0 0 0 .264 0 .133.133 0 0 0-.132-.131zm0-1.095a.13.13 0 0 0-.132.131c0 .071.059.131.132.131.071 0 .132-.06.132-.131a.132.132 0 0 0-.132-.131zm0 .549a.13.13 0 0 0-.132.129c0 .072.059.132.132.132.071 0 .132-.06.132-.132a.132.132 0 0 0-.132-.129zm0-1.645a.13.13 0 0 0-.132.13.132.132 0 0 0 .264 0 .131.131 0 0 0-.132-.13zm.548-1.097a.132.132 0 0 0-.131.131c0 .072.061.133.131.133a.133.133 0 0 0 .131-.133.13.13 0 0 0-.131-.131zm-.548.55a.13.13 0 0 0-.132.132c0 .07.061.129.132.129a.133.133 0 0 0 .132-.129.132.132 0 0 0-.132-.132zm1.097 1.094a.131.131 0 1 0 .131.129.131.131 0 0 0-.131-.129zm1.096 0a.13.13 0 0 0-.131.129.13.13 0 0 0 .131.133.13.13 0 0 0 .129-.133.13.13 0 0 0-.129-.129zm1.095 0a.132.132 0 0 0-.131.129c0 .075.06.133.131.133a.131.131 0 0 0 0-.262zm-2.191-1.094a.13.13 0 0 0-.132.132c0 .07.06.129.132.129a.13.13 0 1 0 0-.261zm1.096 0a.13.13 0 0 0-.131.132c0 .07.058.129.131.129a.13.13 0 0 0 .129-.129.128.128 0 0 0-.129-.132zm1.095 0a.131.131 0 0 0-.131.132.131.131 0 0 0 .262 0 .13.13 0 0 0-.131-.132zm-3.288-.55a.132.132 0 0 0-.132.131c0 .072.061.133.132.133.071 0 .132-.06.132-.133a.133.133 0 0 0-.132-.131zm0-.548a.132.132 0 0 0-.132.132c0 .07.059.129.132.129a.133.133 0 0 0 .132-.129.133.133 0 0 0-.132-.132zm.548 1.097a.132.132 0 0 0-.131.132c0 .069.061.129.131.129a.13.13 0 1 0 0-.261zm0 2.193a.131.131 0 0 0-.131.129c0 .072.06.132.131.132a.13.13 0 1 0 0-.261zm1.096-3.29a.13.13 0 1 0 0 .261.131.131 0 0 0 .132-.129.132.132 0 0 0-.132-.132zm0 2.741a.13.13 0 0 0-.131.131.131.131 0 0 0 .263 0 .13.13 0 0 0-.132-.131zm0-.549a.13.13 0 0 0-.131.129.131.131 0 1 0 .263 0 .131.131 0 0 0-.132-.129zm0-.547a.13.13 0 1 0 0 .26.13.13 0 0 0 .132-.13.13.13 0 0 0-.132-.13zm0 2.191a.132.132 0 0 0-.131.131.13.13 0 0 0 .131.131.131.131 0 1 0 0-.262zm-.547-1.095a.13.13 0 0 0-.132.131c0 .071.059.131.132.131.072 0 .131-.06.131-.131a.13.13 0 0 0-.131-.131zm0 .549a.13.13 0 0 0-.132.129c0 .072.059.132.132.132.072 0 .131-.06.131-.132a.132.132 0 0 0-.131-.129zm0-1.645a.13.13 0 0 0-.132.13c0 .072.059.13.132.13a.13.13 0 1 0 0-.26zm.547-1.097a.13.13 0 0 0-.131.131c0 .072.06.133.131.133.073 0 .132-.06.132-.133a.132.132 0 0 0-.132-.131zm-.547 0a.132.132 0 0 0-.132.131c0 .072.06.133.132.133.07 0 .131-.061.131-.133a.131.131 0 0 0-.131-.131zm0-.548a.132.132 0 0 0-.132.132c0 .07.059.129.132.129a.131.131 0 0 0 .131-.129.132.132 0 0 0-.131-.132zm.547 1.097a.13.13 0 1 0 0 .261c.072 0 .132-.06.132-.129a.131.131 0 0 0-.132-.132zm0 2.193a.13.13 0 0 0-.131.129.132.132 0 1 0 .263 0 .13.13 0 0 0-.132-.129zm1.097-3.29a.132.132 0 0 0-.131.132.13.13 0 0 0 .261 0 .132.132 0 0 0-.13-.132zm0 2.741a.13.13 0 0 0-.131.131c0 .071.059.131.131.131a.131.131 0 0 0 0-.262zm0-.549a.131.131 0 0 0 0 .262.13.13 0 0 0 .13-.133.13.13 0 0 0-.13-.129zm0-.547a.13.13 0 1 0 0 .26c.071 0 .13-.059.13-.13a.13.13 0 0 0-.13-.13zm0 2.191a.13.13 0 1 0 0 .262.13.13 0 0 0 0-.262zm-.548-1.095a.13.13 0 0 0-.131.131c0 .071.058.131.131.131a.13.13 0 0 0 .129-.131.129.129 0 0 0-.129-.131zm0 .549a.13.13 0 0 0-.131.129c0 .072.058.132.131.132a.13.13 0 0 0 0-.261zm0-1.645a.13.13 0 1 0 .129.13.128.128 0 0 0-.129-.13zm.548-1.097a.131.131 0 0 0-.131.131c0 .072.06.133.131.133.071 0 .13-.061.13-.133a.13.13 0 0 0-.13-.131zm-.548 0a.13.13 0 0 0-.131.131c0 .073.058.133.131.133a.13.13 0 0 0 .129-.133.128.128 0 0 0-.129-.131zm0-.548a.13.13 0 1 0 0 .261.13.13 0 0 0 .129-.129.13.13 0 0 0-.129-.132zm.548 1.097a.131.131 0 0 0-.131.132c0 .069.06.129.131.129.071 0 .13-.06.13-.129a.13.13 0 0 0-.13-.132zm0 2.193a.13.13 0 1 0-.001.26.13.13 0 0 0 .001-.26zm1.096-1.098a.131.131 0 0 0 0 .262.13.13 0 0 0 .13-.133.13.13 0 0 0-.13-.129zm-.549-.547a.13.13 0 0 0-.131.13c0 .072.06.13.131.13a.13.13 0 1 0 0-.26zm.549-1.097a.13.13 0 0 0-.131.131c0 .073.059.133.131.133.07 0 .131-.061.131-.133a.131.131 0 0 0-.131-.131zm-.549 0a.132.132 0 0 0-.131.131c0 .072.061.133.131.133.072 0 .131-.06.131-.133a.13.13 0 0 0-.131-.131zm0-.548c-.07 0-.131.06-.131.132a.131.131 0 0 0 .262 0 .132.132 0 0 0-.131-.132zm.549 1.097a.131.131 0 0 0-.131.132c0 .069.061.129.131.129.071 0 .13-.058.131-.129a.131.131 0 0 0-.131-.132zm.548-1.097a.133.133 0 0 0-.132.132.132.132 0 0 0 .264 0 .133.133 0 0 0-.132-.132zm1.645 0a.13.13 0 0 0 0 .261.13.13 0 1 0 0-.261zm1.096 0a.132.132 0 0 0-.131.132.131.131 0 0 0 .262 0 .132.132 0 0 0-.131-.132zm0 .548a.13.13 0 0 0-.131.131c0 .073.059.133.131.133a.134.134 0 0 0 .131-.133.131.131 0 0 0-.131-.131zm-.549 0a.13.13 0 0 0-.131.131c0 .073.06.133.131.133.073 0 .133-.06.133-.133a.133.133 0 0 0-.133-.131zm0-.548a.132.132 0 0 0-.131.132.132.132 0 0 0 .264 0 .133.133 0 0 0-.133-.132zm.549 1.097a.13.13 0 1 0 0 .261c.071 0 .131-.06.131-.129a.131.131 0 0 0-.131-.132zm.549 0a.131.131 0 0 0-.133.132.13.13 0 0 0 .133.129c.07 0 .131-.06.131-.129a.132.132 0 0 0-.131-.132zm0-.549a.131.131 0 0 0-.133.131c0 .073.059.133.133.133.07 0 .131-.061.131-.133a.132.132 0 0 0-.131-.131zm0-.548a.132.132 0 0 0-.133.132c0 .07.059.129.133.129a.132.132 0 0 0 .131-.129.132.132 0 0 0-.131-.132zm.547 1.097a.13.13 0 1 0 0 .261c.072 0 .131-.06.131-.129a.13.13 0 0 0-.131-.132zm-8.769-5.481a.133.133 0 0 0-.132.132c0 .07.06.13.132.13a.13.13 0 0 0 .129-.13.13.13 0 0 0-.129-.132zm8.771 2.741a.132.132 0 0 0-.132.131.13.13 0 0 0 .132.129.127.127 0 0 0 .129-.129.131.131 0 0 0-.129-.131zm1.095 0a.131.131 0 0 0-.132.131c0 .073.058.129.132.129a.128.128 0 0 0 .131-.129.13.13 0 0 0-.131-.131zm0 1.096a.133.133 0 0 0-.132.13.132.132 0 0 0 .263 0 .13.13 0 0 0-.131-.13zm-8.222 0a.131.131 0 0 0-.132.13c0 .072.059.132.132.132.072 0 .131-.06.131-.132a.134.134 0 0 0-.131-.13zm1.096 0a.13.13 0 0 0-.131.13c0 .072.058.132.131.132a.13.13 0 0 0 .129-.132.13.13 0 0 0-.129-.13zm6.578-1.096a.13.13 0 0 0-.131.131c0 .073.058.129.131.129.072 0 .13-.056.13-.129a.132.132 0 0 0-.13-.131zm0 .549a.13.13 0 1 0 0 .261.13.13 0 0 0 0-.261zm.548 0a.13.13 0 0 0-.132.13c0 .072.058.131.132.131a.13.13 0 1 0 0-.261zm-6.031-.549a.133.133 0 0 0-.131.131.13.13 0 0 0 .131.129.13.13 0 0 0 .131-.129.131.131 0 0 0-.131-.131zm0 1.096c-.07 0-.131.06-.131.13 0 .072.061.132.131.132.072 0 .131-.06.131-.132a.131.131 0 0 0-.131-.13zm0-.547a.133.133 0 0 0-.131.13c0 .072.061.131.131.131a.131.131 0 0 0 .131-.131.131.131 0 0 0-.131-.13zm1.098-.549a.132.132 0 0 0-.132.131.13.13 0 0 0 .132.129.13.13 0 0 0 .131-.129.133.133 0 0 0-.131-.131zm0 1.096a.131.131 0 0 0-.132.13c0 .072.059.132.132.132.072 0 .131-.06.131-.132 0-.07-.061-.13-.131-.13zm-.549-1.096a.131.131 0 0 0-.131.131.13.13 0 0 0 .131.129.13.13 0 0 0 .131-.129.131.131 0 0 0-.131-.131zm0 .549a.131.131 0 0 0-.131.13c0 .072.059.131.131.131a.131.131 0 0 0 .131-.131.131.131 0 0 0-.131-.13zm.549 0a.131.131 0 0 0-.132.13.132.132 0 0 0 .263 0 .133.133 0 0 0-.131-.13zm1.096-.549a.13.13 0 0 0-.131.131c0 .073.058.129.131.129a.13.13 0 0 0 .131-.129.131.131 0 0 0-.131-.131zm0 1.096a.13.13 0 0 0-.131.13c0 .072.058.132.131.132.072 0 .131-.06.131-.132 0-.07-.059-.13-.131-.13zm0-.547a.13.13 0 1 0 0 .261.131.131 0 0 0 .131-.131.131.131 0 0 0-.131-.13zm.548-.549a.133.133 0 0 0-.133.131c0 .073.06.129.133.129a.127.127 0 0 0 .129-.129.13.13 0 0 0-.129-.131zm-6.578 0a.131.131 0 0 0-.131.131.13.13 0 0 0 .131.129c.073 0 .13-.056.13-.129a.13.13 0 0 0-.13-.131zm0-.548a.13.13 0 1 0 0 .261.13.13 0 0 0 0-.261zm0-.547a.13.13 0 1 0 0 .26.13.13 0 0 0 .13-.13.128.128 0 0 0-.13-.13zm0 2.191a.131.131 0 0 0-.131.13c0 .072.059.132.131.132a.13.13 0 0 0 .13-.132.13.13 0 0 0-.13-.13zm0-3.289a.132.132 0 0 0-.131.132c0 .071.059.132.131.132.073 0 .13-.061.13-.132a.13.13 0 0 0-.13-.132zm0 .548a.131.131 0 1 0 0 .263.13.13 0 0 0 .13-.13.131.131 0 0 0-.13-.133zm0 2.194a.131.131 0 0 0-.131.13c0 .072.059.131.131.131a.13.13 0 0 0 .13-.131.13.13 0 0 0-.13-.13zm1.096-3.29a.133.133 0 0 0-.131.132c0 .07.06.13.131.13a.131.131 0 0 0 0-.262zm0 2.741a.13.13 0 1 0 0 .26.128.128 0 0 0 .131-.129.13.13 0 0 0-.131-.131zm0-.548a.131.131 0 0 0-.131.13c0 .073.06.131.131.131a.13.13 0 0 0 .131-.131.13.13 0 0 0-.131-.13zm-.548 0a.13.13 0 0 0-.132.13.132.132 0 0 0 .264 0 .132.132 0 0 0-.132-.13zm.548-.547a.13.13 0 0 0-.131.13c0 .071.06.13.131.13a.13.13 0 0 0 .131-.13.13.13 0 0 0-.131-.13zm0 2.191c-.07 0-.131.06-.131.13 0 .072.06.132.131.132.073 0 .131-.06.131-.132 0-.07-.059-.13-.131-.13zm-.548 0a.133.133 0 0 0-.132.13c0 .072.059.132.132.132.071 0 .132-.06.132-.132a.133.133 0 0 0-.132-.13zm0-1.096a.132.132 0 0 0-.132.131.13.13 0 0 0 .132.129.13.13 0 0 0 .132-.129.133.133 0 0 0-.132-.131zm0 .549a.131.131 0 0 0-.132.13c0 .072.059.131.132.131a.133.133 0 0 0 .132-.131.133.133 0 0 0-.132-.13zm0-1.644a.13.13 0 0 0-.132.13c0 .071.059.13.132.13a.133.133 0 0 0 .132-.13.131.131 0 0 0-.132-.13zm.548-1.098a.132.132 0 0 0-.131.132c0 .071.061.132.131.132a.133.133 0 0 0 .131-.132.131.131 0 0 0-.131-.132zm-.548.549a.132.132 0 0 0-.132.133c0 .07.061.131.132.131.071 0 .132-.06.132-.131a.133.133 0 0 0-.132-.133zm1.097 1.096a.13.13 0 0 0-.132.13c0 .073.059.131.132.131a.13.13 0 1 0 0-.261zm1.096 0a.13.13 0 0 0-.131.13.13.13 0 1 0 .26 0 .129.129 0 0 0-.129-.13zm1.095 0a.131.131 0 0 0-.131.13c0 .073.06.131.131.131a.13.13 0 0 0 0-.261zm1.097 0a.131.131 0 0 0-.132.13c0 .073.06.131.132.131a.132.132 0 0 0 .132-.131c0-.072-.06-.13-.132-.13zm1.097 0a.13.13 0 0 0-.131.13.13.13 0 0 0 .131.131.13.13 0 0 0 .13-.131.13.13 0 0 0-.13-.13zm-4.385-1.096a.132.132 0 0 0-.132.133c0 .07.06.131.132.131.07 0 .131-.061.131-.131a.132.132 0 0 0-.131-.133zm1.096 0a.13.13 0 0 0-.131.133c0 .071.058.131.131.131a.13.13 0 0 0 .129-.131.129.129 0 0 0-.129-.133zm1.095 0a.133.133 0 0 0-.131.133c0 .07.061.131.131.131a.132.132 0 0 0 0-.264zm1.097 0a.133.133 0 0 0-.132.133c0 .071.06.131.132.131a.134.134 0 0 0 .132-.131.133.133 0 0 0-.132-.133zm2.192 0a.132.132 0 1 0 .002.264.132.132 0 0 0-.002-.264zm-6.577-.549a.132.132 0 0 0-.132.132c0 .071.061.132.132.132a.135.135 0 0 0 .132-.132.133.133 0 0 0-.132-.132zm0-.548a.133.133 0 0 0-.132.132c0 .07.059.13.132.13.071 0 .132-.06.132-.13a.134.134 0 0 0-.132-.132zm.548 1.096a.133.133 0 0 0-.131.133c0 .069.061.13.131.13a.133.133 0 0 0 .131-.13.132.132 0 0 0-.131-.133zm0 2.194a.132.132 0 0 0-.131.13.13.13 0 1 0 .262 0 .131.131 0 0 0-.131-.13zm1.096-3.29a.131.131 0 1 0 0 .262.131.131 0 0 0 0-.262zm0 2.741a.13.13 0 0 0-.131.131c0 .073.058.129.131.129a.13.13 0 0 0 .132-.129.132.132 0 0 0-.132-.131zm0-.548a.13.13 0 0 0-.131.13.13.13 0 0 0 .131.131.131.131 0 0 0 .132-.131.13.13 0 0 0-.132-.13zm0-.547a.13.13 0 0 0-.131.13.131.131 0 1 0 .263 0 .13.13 0 0 0-.132-.13zm0 2.191a.133.133 0 0 0-.131.13.132.132 0 1 0 .263 0 .131.131 0 0 0-.132-.13zm-.547-1.096a.132.132 0 0 0-.132.131.13.13 0 0 0 .132.129.13.13 0 0 0 .131-.129.131.131 0 0 0-.131-.131zm0 .549a.131.131 0 0 0-.132.13.132.132 0 0 0 .263 0 .133.133 0 0 0-.131-.13zm0-1.644a.13.13 0 0 0-.132.13.131.131 0 0 0 .263 0 .13.13 0 0 0-.131-.13zm.547-1.098a.131.131 0 0 0-.131.132c0 .071.06.132.131.132a.132.132 0 1 0 0-.264zm-.547 0a.132.132 0 1 0 0 .264c.07 0 .131-.061.131-.132a.132.132 0 0 0-.131-.132zm0-.548a.133.133 0 0 0-.132.132c0 .07.059.13.132.13.072 0 .131-.06.131-.13a.132.132 0 0 0-.131-.132zm.547 1.096a.132.132 0 0 0-.131.133c0 .069.06.13.131.13a.133.133 0 0 0 .132-.13.133.133 0 0 0-.132-.133zm0 2.194a.13.13 0 1 0 0 .261.132.132 0 0 0 .132-.131.131.131 0 0 0-.132-.13zm1.097-3.29a.132.132 0 0 0-.131.132c0 .07.059.13.131.13.071 0 .13-.06.13-.13a.132.132 0 0 0-.13-.132zm0 2.741a.131.131 0 0 0-.131.131.13.13 0 0 0 .131.129c.072 0 .13-.056.13-.129a.131.131 0 0 0-.13-.131zm0-.548a.13.13 0 1 0 0 .261.13.13 0 0 0 0-.261zm0-.547a.13.13 0 1 0 0 .26c.071 0 .13-.059.13-.13a.13.13 0 0 0-.13-.13zm0 2.191a.133.133 0 0 0-.131.13c0 .072.059.132.131.132.072 0 .13-.06.13-.132 0-.07-.059-.13-.13-.13zm-.548-1.096a.13.13 0 0 0-.131.131c0 .073.058.129.131.129a.127.127 0 0 0 .129-.129.13.13 0 0 0-.129-.131zm0 .549a.13.13 0 1 0 0 .261.13.13 0 0 0 .129-.131.13.13 0 0 0-.129-.13zm0-1.644a.13.13 0 0 0-.131.13c0 .071.058.13.131.13a.13.13 0 0 0 .129-.13.128.128 0 0 0-.129-.13zm.548-1.098a.132.132 0 0 0-.131.132c0 .071.06.132.131.132.071 0 .13-.061.13-.132a.13.13 0 0 0-.13-.132zm-.548 0a.132.132 0 0 0 0 .264.131.131 0 0 0 .129-.132.129.129 0 0 0-.129-.132zm0-.548a.131.131 0 0 0 0 .262.13.13 0 0 0 .129-.13.13.13 0 0 0-.129-.132zm.548 1.096a.133.133 0 0 0-.131.133c0 .069.06.13.131.13.071 0 .13-.061.13-.13a.132.132 0 0 0-.13-.133zm0 2.194a.131.131 0 0 0-.131.13.13.13 0 1 0 .131-.13zm1.096-3.29a.132.132 0 0 0-.131.132c0 .07.059.13.131.13.072 0 .131-.06.131-.13a.132.132 0 0 0-.131-.132zm0 2.193a.13.13 0 1 0 0 .261.13.13 0 0 0 0-.261zm0-.547a.13.13 0 1 0 0 .26.13.13 0 0 0 .13-.13.13.13 0 0 0-.13-.13zm-.549 0a.13.13 0 0 0-.131.13c0 .071.06.13.131.13a.13.13 0 1 0 0-.26zm.549-1.098a.131.131 0 0 0-.131.132c0 .071.059.132.131.132.07 0 .131-.061.131-.132a.132.132 0 0 0-.131-.132zm-.549 0a.132.132 0 0 0-.131.132c0 .071.061.132.131.132a.133.133 0 0 0 .131-.132.131.131 0 0 0-.131-.132zm0-.548c-.07 0-.131.06-.131.132 0 .07.061.13.131.13.072 0 .131-.06.131-.13a.132.132 0 0 0-.131-.132zm.549 1.096a.133.133 0 0 0-.131.133c0 .069.061.13.131.13.071 0 .13-.059.131-.13a.133.133 0 0 0-.131-.133zm1.097-1.096a.132.132 0 0 0-.132.132c0 .07.058.13.132.13a.13.13 0 0 0 .129-.13.13.13 0 0 0-.129-.132zm-.001 2.193a.13.13 0 0 0-.131.13.13.13 0 0 0 .131.131.13.13 0 0 0 .13-.131.13.13 0 0 0-.13-.13zm0-.547a.13.13 0 0 0-.131.13.13.13 0 1 0 .261 0 .13.13 0 0 0-.13-.13zm-.548 0a.13.13 0 0 0-.132.13.132.132 0 0 0 .264 0 .13.13 0 0 0-.132-.13zm.549-1.098a.131.131 0 0 0-.132.132c0 .071.06.132.132.132a.131.131 0 0 0 .129-.132.13.13 0 0 0-.129-.132zm-.549 0a.133.133 0 0 0-.132.132c0 .071.06.132.132.132a.135.135 0 0 0 .132-.132.133.133 0 0 0-.132-.132zm0-.548a.133.133 0 0 0-.132.132c0 .07.06.13.132.13.072 0 .132-.06.132-.13a.133.133 0 0 0-.132-.132zm.549 1.096a.132.132 0 0 0-.132.133c0 .069.06.13.132.13a.131.131 0 0 0 0-.263zm1.096-1.096a.131.131 0 0 0 0 .262.131.131 0 0 0 0-.262zm0 2.193a.128.128 0 0 0-.13.13c0 .074.057.131.13.131a.13.13 0 0 0 .129-.131.129.129 0 0 0-.129-.13zm0-.547a.128.128 0 0 0-.13.13.13.13 0 0 0 .259 0 .128.128 0 0 0-.129-.13zm-.548 0a.13.13 0 0 0-.131.13.13.13 0 0 0 .261 0 .13.13 0 0 0-.13-.13zm0-.55a.132.132 0 0 0-.131.133c0 .069.059.13.131.13a.132.132 0 0 0 0-.263zm.548-.548a.13.13 0 0 0-.13.132c0 .071.058.132.13.132a.134.134 0 0 0 .131-.132.131.131 0 0 0-.131-.132zm-.548 0a.132.132 0 0 0 0 .264c.072 0 .13-.061.13-.132a.13.13 0 0 0-.13-.132zm0-.548a.131.131 0 0 0 0 .262.131.131 0 0 0 0-.262zm.548 1.096c-.073 0-.13.06-.13.133 0 .071.058.13.13.13a.133.133 0 0 0 .131-.13.132.132 0 0 0-.131-.133zm1.096-1.096a.132.132 0 0 0-.131.132c0 .07.059.13.131.13.072 0 .131-.06.131-.13a.132.132 0 0 0-.131-.132zm.549 2.195a.13.13 0 1 0 0 .261.13.13 0 1 0 0-.261zm-1.098-.549a.13.13 0 0 0-.131.13.132.132 0 0 0 .264 0c0-.073-.06-.13-.133-.13zm.549-1.098a.131.131 0 0 0-.131.132c0 .071.059.132.131.132a.134.134 0 0 0 .131-.132.132.132 0 0 0-.131-.132zm-.549 0a.132.132 0 0 0-.131.132c0 .071.06.132.131.132a.134.134 0 0 0 .133-.132.133.133 0 0 0-.133-.132zm0-.548a.133.133 0 0 0-.131.132c0 .07.06.13.131.13.073 0 .133-.06.133-.13a.133.133 0 0 0-.133-.132zm.549 1.096a.131.131 0 1 0 0 .263.133.133 0 0 0 .131-.13.133.133 0 0 0-.131-.133zm1.096-1.096a.132.132 0 0 0-.131.132c0 .07.059.13.131.13a.131.131 0 0 0 0-.262zm0 2.193a.13.13 0 1 0 0 .261.13.13 0 0 0 .131-.131.13.13 0 0 0-.131-.13zm0-.547a.13.13 0 1 0 0 .26.13.13 0 1 0 0-.26zm-.547 0a.13.13 0 0 0-.133.13.132.132 0 1 0 .264 0 .13.13 0 0 0-.131-.13zm0-.55a.133.133 0 0 0-.133.133.132.132 0 1 0 .133-.133zm.547-.548a.131.131 0 0 0-.131.132c0 .071.059.132.131.132a.133.133 0 0 0 .131-.132.13.13 0 0 0-.131-.132zm-.547 0a.132.132 0 1 0 0 .264c.07 0 .131-.061.131-.132a.132.132 0 0 0-.131-.132zm0-.548a.133.133 0 0 0-.133.132.132.132 0 0 0 .264 0 .133.133 0 0 0-.131-.132zm.547 1.096a.131.131 0 1 0 0 .263.131.131 0 1 0 0-.263zm1.097-1.096a.132.132 0 0 0-.132.132.131.131 0 1 0 .132-.132zm0 2.193a.13.13 0 1 0 0 .261.13.13 0 0 0 .129-.131.13.13 0 0 0-.129-.13zm-.549 0a.13.13 0 0 0-.132.13.131.131 0 0 0 .262 0 .13.13 0 0 0-.13-.13zm.549-.547a.13.13 0 0 0-.132.13.13.13 0 0 0 .261 0 .129.129 0 0 0-.129-.13zm-.549-.002a.132.132 0 0 0-.132.133c0 .07.06.129.132.129a.13.13 0 0 0 .13-.129.132.132 0 0 0-.13-.133zm0-.548a.133.133 0 0 0-.132.133c0 .069.06.13.132.13.071 0 .13-.059.13-.13a.132.132 0 0 0-.13-.133zm.549-.548a.131.131 0 0 0-.132.132c0 .071.058.132.132.132.072 0 .13-.061.13-.132a.13.13 0 0 0-.13-.132zm-.549 0a.132.132 0 1 0 0 .264c.071 0 .13-.061.13-.132a.13.13 0 0 0-.13-.132zm0-.548a.133.133 0 0 0-.132.132c0 .07.059.13.132.13.071 0 .13-.06.13-.13a.132.132 0 0 0-.13-.132zm.679 1.229a.13.13 0 1 1-.262 0c0-.073.058-.133.132-.133.072 0 .13.06.13.133z" fill="#1A1919" fill-rule="evenodd"/><script xmlns=""/></svg>